<svg width="33" height="22" viewBox="0 0 33 22" fill="none" xmlns="http://www.w3.org/2000/svg">
<path fill-rule="evenodd" clip-rule="evenodd" d="M28.7878 21.3452H10.6295C10.3548 21.3452 10.0919 21.2349 9.90451 21.0382L0.990354 11.7221C0.635133 11.3523 0.635133 10.7791 0.990354 10.409L9.90451 1.09293C10.0919 0.896472 10.3548 0.785889 10.6295 0.785889H28.7878C30.7912 0.785889 32.4196 2.37029 32.4196 4.31962V17.8117C32.4196 19.7611 30.7912 21.3452 28.7878 21.3452ZM10.6916 19.6321H29.0013C29.9411 19.6321 30.7063 18.8929 30.7063 17.9848V4.14674C30.7063 3.23866 29.9411 2.49927 29.0013 2.49927H10.6916L2.43722 11.0658L10.6916 19.6321ZM23.8263 16.205C23.5895 16.205 23.354 16.1071 23.1785 15.9149L19.9983 12.3985L16.8179 15.915C16.6424 16.1072 16.4069 16.205 16.17 16.205C15.9546 16.205 15.7391 16.1253 15.5683 15.9632C15.2114 15.6222 15.1913 15.0478 15.5224 14.6813L18.7927 11.0654L15.5224 7.44929C15.1913 7.08303 15.2114 6.50839 15.5683 6.16738C15.9263 5.82769 16.4834 5.84696 16.8179 6.21587L19.9983 9.73229L23.1785 6.21595C23.5119 5.84837 24.0703 5.82777 24.4283 6.16746C24.7852 6.50847 24.8051 7.08311 24.4742 7.44937L21.2039 11.0654L24.4742 14.6813C24.8051 15.0477 24.7852 15.6221 24.4283 15.9632C24.2575 16.1253 24.042 16.205 23.8263 16.205Z" fill="#646465"/>
</svg>
