<svg width="80" height="80" viewBox="0 0 80 80" fill="none" xmlns="http://www.w3.org/2000/svg">
<path fill-rule="evenodd" clip-rule="evenodd" d="M61.3114 46.3625H62.377C63.5541 46.3625 64.5083 47.3167 64.5083 48.4938V64.4782C64.5037 68.596 61.1667 71.9328 57.049 71.9376H17.5782C15.2486 71.9352 13.3606 70.0473 13.3583 67.7177V12.2199C13.3606 9.89028 15.2486 8.00237 17.5782 8H47.5009C49.8305 8.00237 51.7184 9.89028 51.7208 12.2199V26.3191C57.2726 27.3509 61.3025 32.1906 61.3114 37.8375V46.3625ZM59.1801 46.3626V37.8375C59.1801 32.5408 54.8862 28.2469 49.5895 28.2469C44.2928 28.2469 39.9989 32.5408 39.9989 37.8375V46.3626H59.1801ZM15.4896 12.2198C15.4907 11.0668 16.4252 10.1324 17.5782 10.1312H47.5009C48.6539 10.1324 49.5884 11.0668 49.5895 12.2198V16.525H15.4896V12.2198ZM49.5896 18.6562H15.4896V61.2814H34.6708V48.4939C34.6708 47.3168 35.625 46.3626 36.8021 46.3626H37.8677V37.8375C37.8753 31.3668 43.119 26.1232 49.5896 26.1156V18.6562ZM17.5782 69.8063C16.4252 69.8051 15.4907 68.8707 15.4896 67.7177V63.4125H34.6708V64.4781C34.6706 66.4847 35.4815 68.4064 36.9193 69.8063H17.5782ZM59.1801 50.625H62.377H62.3771V48.4938H36.8021V50.6251H39.999C40.5875 50.6251 41.0646 51.1022 41.0646 51.6907C41.0646 52.2793 40.5875 52.7563 39.999 52.7563H36.8021V54.8876H39.999C40.5875 54.8876 41.0646 55.3646 41.0646 55.9532C41.0646 56.5417 40.5875 57.0188 39.999 57.0188H36.8021V59.1501H39.999C40.5875 59.1501 41.0646 59.6271 41.0646 60.2156C41.0646 60.8042 40.5875 61.2812 39.999 61.2812H36.8021V63.4125H39.999C40.5875 63.4125 41.0646 63.8896 41.0646 64.4781C41.0646 65.0665 40.5875 65.5437 39.999 65.5437H36.9086C37.4184 68.0228 39.5991 69.8029 42.1302 69.8062H57.049C59.5799 69.803 61.7606 68.0228 62.2705 65.5437H59.1801C58.5917 65.5437 58.1146 65.0667 58.1146 64.4781C58.1146 63.8897 58.5916 63.4125 59.1801 63.4125H62.377V61.2812H59.1801C58.5917 61.2812 58.1146 60.8042 58.1146 60.2156C58.1146 59.6271 58.5916 59.1501 59.1801 59.1501H62.377V57.0186H59.1801C58.5917 57.0186 58.1146 56.5416 58.1146 55.9531C58.1146 55.3645 58.5916 54.8875 59.1801 54.8875H62.377V52.7562H59.1801C58.5917 52.7562 58.1146 52.2792 58.1146 51.6906C58.1146 51.1021 58.5916 50.625 59.1801 50.625Z" fill="#00664F"/>
<path fill-rule="evenodd" clip-rule="evenodd" d="M34.2769 28.2053C33.1647 24.6513 29.8746 22.2292 26.1493 22.2223C22.424 22.2154 19.1248 24.625 17.9993 28.1749C16.8738 31.7248 18.1823 35.5943 21.2316 37.7335V37.7305C21.2519 37.748 21.2735 37.7642 21.2962 37.7786C24.2189 39.8022 28.0932 39.7915 31.0046 37.7518H31.0088C34.0661 35.624 35.3891 31.7594 34.2769 28.2053ZM22.4707 37.081V37.0779C22.5366 37.0076 22.6123 36.9473 22.6956 36.8988L24.6557 35.938C25.0577 35.7369 25.3128 35.3272 25.3158 34.8779V34.6463C25.3145 34.3047 25.119 33.9935 24.8117 33.844C24.0886 33.4863 23.5605 32.8276 23.3685 32.0443C23.3141 31.8435 23.1611 31.6843 22.9626 31.622C22.816 31.5576 22.7276 31.4061 22.7438 31.2467V30.741C22.7273 30.6054 22.7851 30.4713 22.895 30.3901C23.0754 30.2945 23.196 30.115 23.2161 29.9118C23.2581 29.4543 23.3688 29.0057 23.5446 28.5812C23.7107 28.2132 23.8095 27.8185 23.8365 27.4157C24.4698 27.7323 25.1795 27.8645 25.8844 27.7971C25.9556 27.7916 26.0319 27.7916 26.1081 27.7923C28.4545 27.7923 28.8866 28.9303 29.0013 29.9216C29.0243 30.1209 29.1439 30.2961 29.3212 30.3901C29.4505 30.4582 29.5285 30.5951 29.5212 30.741V31.2467C29.5284 31.4173 29.4194 31.5713 29.256 31.6214C29.0551 31.6834 28.9002 31.8446 28.8465 32.0479C28.6701 32.8241 28.1588 33.4825 27.4502 33.8458C27.1444 33.9956 26.9501 34.3059 26.9492 34.6463V34.9022C26.9496 35.3454 27.1994 35.7506 27.5952 35.9501L29.4682 36.9128C29.5694 36.9652 29.6624 37.0321 29.7443 37.1114C27.4895 38.4052 24.7145 38.3935 22.4707 37.081ZM30.0203 35.8222C30.3058 35.9671 30.5589 36.1684 30.7645 36.4138C33.1583 34.4581 34.0626 31.2086 33.0228 28.2981C31.983 25.3876 29.2241 23.4458 26.1325 23.4483C23.0521 23.4478 20.3019 25.3777 19.2559 28.2741C18.21 31.1704 19.0928 34.4114 21.4633 36.3778C21.6481 36.1488 21.8759 35.958 22.1337 35.8161L24.1029 34.8504C23.2386 34.3697 22.586 33.5822 22.2745 32.6437C21.7928 32.3459 21.5061 31.8144 21.5218 31.2486V30.7429C21.5058 30.2778 21.6929 29.8289 22.0344 29.5128C22.1023 29.0261 22.2332 28.5503 22.4238 28.0975C22.5983 27.7309 22.6572 27.32 22.5927 26.9192C22.5546 26.7313 22.5273 26.5412 22.511 26.3502C22.4812 26.0454 22.6545 25.7572 22.9377 25.6404C23.2272 25.5143 23.5653 25.595 23.7665 25.8384C23.8984 25.9873 24.0495 26.1183 24.2157 26.2277C24.6869 26.5182 25.2415 26.6433 25.7918 26.5835C25.8948 26.5756 26.0015 26.5756 26.1081 26.5756C28.9976 26.5756 29.9271 28.1036 30.1709 29.5C30.5375 29.8071 30.7466 30.2629 30.7401 30.741V31.2467C30.7428 31.8212 30.4378 32.3533 29.9405 32.6413C29.6514 33.5734 29.0175 34.3602 28.1681 34.8413V34.9022L30.0203 35.8222Z" fill="#00664F"/>
<path fill-rule="evenodd" clip-rule="evenodd" d="M48.524 62.347V60.0196C47.057 59.503 46.1768 58.0036 46.4403 56.4708C46.7038 54.9382 48.0343 53.8189 49.5896 53.8219C51.1448 53.8189 52.4754 54.9381 52.7389 56.4708C53.0024 58.0036 52.1221 59.503 50.6552 60.0196V62.347C50.6552 62.9355 50.1781 63.4125 49.5896 63.4125C49.001 63.4125 48.524 62.9355 48.524 62.347ZM50.6551 57.0188C50.6551 56.4304 50.1781 55.9532 49.5896 55.9532C49.0011 55.9532 48.524 56.4304 48.524 57.0188C48.524 57.6072 49.001 58.0844 49.5896 58.0844C50.1781 58.0844 50.6551 57.6074 50.6551 57.0188Z" fill="#00664F"/>
<path d="M32.5396 65.5438H28.2771C27.6886 65.5438 27.2115 66.0209 27.2115 66.6094C27.2115 67.198 27.6887 67.675 28.2771 67.675H32.5396C33.1281 67.675 33.6052 67.198 33.6052 66.6094C33.6052 66.0209 33.1281 65.5438 32.5396 65.5438Z" fill="#00664F"/>
<path d="M19.7521 42.8445H18.6865C18.0979 42.8445 17.6209 43.3215 17.6209 43.9101C17.6209 44.4986 18.0979 44.9757 18.6865 44.9757H19.7521C20.3406 44.9757 20.8177 44.4986 20.8177 43.9101C20.8177 43.3215 20.3406 42.8445 19.7521 42.8445Z" fill="#00664F"/>
<path d="M35.7365 43.9101C35.7365 43.3215 35.2594 42.8445 34.6709 42.8445H24.0147C23.4261 42.8445 22.9491 43.3215 22.9491 43.9101C22.9491 44.4986 23.4261 44.9757 24.0147 44.9757H34.6709C35.2593 44.9758 35.7365 44.4986 35.7365 43.9101Z" fill="#00664F"/>
</svg>
