<svg width="71" height="73" viewBox="0 0 71 73" fill="none" xmlns="http://www.w3.org/2000/svg">
<path d="M69.1133 29.1816L68.3283 29.3354V29.3354L69.1133 29.1816ZM28.9081 1.70023L29.0707 2.48355L28.9081 1.70023ZM68.7977 29.6511L68.6439 28.866L68.6439 28.866L68.7977 29.6511ZM68.3283 29.3354L67.5432 29.4893V29.4893L68.3283 29.3354ZM29.0707 2.48355L28.9081 1.70023V1.70023L29.0707 2.48355ZM28.5977 2.17316L27.8144 2.3357L28.5977 2.17316ZM24.2356 3.87937L24.5158 4.6287L24.5158 4.6287L24.2356 3.87937ZM24.4702 3.36461L23.7208 3.6448L24.4702 3.36461ZM2.98289 42.9043L2.19782 43.0581L2.19782 43.0581L2.98289 42.9043ZM2.19782 43.0581L2.98289 42.9043L2.98289 42.9043L2.19782 43.0581ZM23.9554 3.13004L24.2356 3.87937L24.2356 3.87937L23.9554 3.13004ZM69.8984 29.0278C66.0937 9.60865 47.691 -3.01432 28.7456 0.91692L29.0707 2.48355C47.1044 -1.25852 64.6869 10.75 68.3283 29.3354L69.8984 29.0278ZM68.9515 30.4361C69.6019 30.3087 70.0258 29.6782 69.8984 29.0278L68.3283 29.3354C68.2858 29.1186 68.4271 28.9085 68.6439 28.866L68.9515 30.4361ZM67.5432 29.4893C67.6706 30.1396 68.3011 30.5636 68.9515 30.4361L68.6439 28.866C68.8607 28.8235 69.0709 28.9648 69.1133 29.1816L67.5432 29.4893ZM29.2332 3.26686C46.8113 -0.380667 63.9835 11.3209 67.5432 29.4893L69.1133 29.1816C65.3902 10.1793 47.3976 -2.13641 28.9081 1.70023L29.2332 3.26686ZM27.8144 2.3357C27.9491 2.98462 28.5843 3.40151 29.2332 3.26686L28.9081 1.70023C29.1244 1.65535 29.3362 1.79431 29.3811 2.01062L27.8144 2.3357ZM28.7456 0.91692C28.0967 1.05157 27.6798 1.68678 27.8144 2.3357L29.3811 2.01062C29.4259 2.22693 29.287 2.43866 29.0707 2.48355L28.7456 0.91692ZM24.5158 4.6287C25.1366 4.39658 25.4516 3.70519 25.2195 3.08443L23.7208 3.6448C23.6435 3.43788 23.7485 3.20742 23.9554 3.13004L24.5158 4.6287ZM3.76797 42.7504C0.536628 26.258 9.6555 10.1852 24.5158 4.6287L23.9554 3.13004C8.34616 8.96662 -1.18071 25.8144 2.19782 43.0581L3.76797 42.7504ZM2.82109 44.1588C3.47146 44.0314 3.8954 43.4008 3.76797 42.7504L2.19782 43.0581C2.15534 42.8413 2.29666 42.6311 2.51344 42.5886L2.82109 44.1588ZM1.41275 43.2119C1.54017 43.8623 2.17071 44.2862 2.82109 44.1588L2.51344 42.5886C2.73024 42.5462 2.94042 42.6875 2.98289 42.9043L1.41275 43.2119ZM23.6752 2.38071C7.69143 8.35733 -2.03936 25.5926 1.41275 43.2119L2.98289 42.9043C-0.322045 26.0361 9.00085 9.57591 24.2356 3.87937L23.6752 2.38071ZM25.2195 3.08443C24.9874 2.46366 24.296 2.1486 23.6752 2.38071L24.2356 3.87937C24.0287 3.95674 23.7982 3.85172 23.7208 3.6448L25.2195 3.08443Z" fill="#00664F"/>
<path d="M69.3914 34.9798C69.3289 33.0868 69.1147 31.1736 68.7389 29.2555" stroke="#00664F" stroke-width="1.6" stroke-linecap="round"/>
<path d="M2.60855 42.9781C2.70636 43.4765 2.81375 43.9701 2.93123 44.4591" stroke="#00664F" stroke-width="1.6" stroke-linecap="round"/>
<path d="M30.8333 65.0048L30.1526 64.5845L30.1526 64.5845L30.8333 65.0048ZM30.7031 64.4543L30.2828 65.135H30.2828L30.7031 64.4543ZM27.2518 69.9199L27.8602 70.4393H27.8602L27.2518 69.9199ZM26.6879 69.9643L27.2073 69.3559H27.2073L26.6879 69.9643ZM26.6434 69.4004L26.035 68.881H26.035L26.6434 69.4004ZM30.1526 64.5845L30.8333 65.0048L30.1526 64.5845ZM36.0573 36.0414L36.8424 35.8875V35.8875L36.0573 36.0414ZM35.5879 35.7257L35.4341 34.9407L35.5879 35.7257ZM32.329 62.3628L33.0396 62.7303L33.0396 62.7303L32.329 62.3628ZM31.7899 62.5344L32.1574 61.8238L32.1574 61.8238L31.7899 62.5344ZM31.6183 61.9953L30.9077 61.6279H30.9077L31.6183 61.9953ZM35.2722 36.1952L34.4872 36.349V36.349L35.2722 36.1952ZM31.514 65.4251C31.8622 64.8611 31.6873 64.1218 31.1234 63.7736L30.2828 65.135C30.0949 65.0189 30.0366 64.7725 30.1526 64.5845L31.514 65.4251ZM27.8602 70.4393C29.2034 68.866 30.425 67.189 31.514 65.4251L30.1526 64.5845C29.1063 66.2791 27.9331 67.8898 26.6434 69.4004L27.8602 70.4393ZM26.1684 70.5728C26.6725 71.0031 27.4299 70.9433 27.8602 70.4393L26.6434 69.4004C26.7868 69.2324 27.0393 69.2125 27.2073 69.3559L26.1684 70.5728ZM26.035 68.881C25.6047 69.385 25.6644 70.1424 26.1684 70.5728L27.2073 69.3559C27.3753 69.4994 27.3953 69.7518 27.2518 69.9199L26.035 68.881ZM29.4719 64.1642C28.447 65.8242 27.2979 67.4017 26.035 68.881L27.2518 69.9199C28.5683 68.3779 29.7657 66.734 30.8333 65.0048L29.4719 64.1642ZM31.1234 63.7736C30.5595 63.4254 29.8201 63.6003 29.4719 64.1642L30.8333 65.0048C30.7173 65.1928 30.4708 65.2511 30.2828 65.135L31.1234 63.7736ZM36.8424 35.8875C36.715 35.2372 36.0844 34.8132 35.4341 34.9407L35.7417 36.5108C35.5249 36.5533 35.3147 36.412 35.2722 36.1952L36.8424 35.8875ZM33.0396 62.7303C37.1464 54.7881 38.7041 45.3897 36.8424 35.8875L35.2722 36.1952C37.0624 45.332 35.5645 54.3639 31.6183 61.9953L33.0396 62.7303ZM31.4225 63.245C32.0112 63.5494 32.7352 63.319 33.0396 62.7303L31.6183 61.9953C31.7198 61.7991 31.9611 61.7223 32.1574 61.8238L31.4225 63.245ZM30.9077 61.6279C30.6033 62.2166 30.8338 62.9406 31.4225 63.245L32.1574 61.8238C32.3536 61.9252 32.4304 62.1666 32.329 62.3628L30.9077 61.6279ZM34.4872 36.349C36.2416 45.3032 34.7736 54.1518 30.9077 61.6279L32.329 62.3628C36.3555 54.576 37.8833 45.3608 36.0573 36.0414L34.4872 36.349ZM35.4341 34.9407C34.7837 35.0681 34.3597 35.6986 34.4872 36.349L36.0573 36.0414C36.0998 36.2582 35.9585 36.4683 35.7417 36.5108L35.4341 34.9407Z" fill="#00664F"/>
<path d="M39.6258 55.0399L40.4005 55.2395V55.2395L39.6258 55.0399ZM39.3383 54.5527L39.1386 55.3274V55.3274L39.3383 54.5527ZM31.9884 70.8377L31.3512 70.3538L31.3512 70.3538L31.9884 70.8377ZM31.4279 70.9143L31.9117 70.2772L31.4279 70.9143ZM31.3512 70.3538L30.7141 69.87H30.7141L31.3512 70.3538ZM38.8511 54.8403L39.6258 55.0399V55.0399L38.8511 54.8403ZM40.4005 55.2395C40.5659 54.5977 40.1797 53.9434 39.5379 53.778L39.1386 55.3274C38.9247 55.2723 38.796 55.0542 38.8511 54.8403L40.4005 55.2395ZM32.6255 71.3215C36.2253 66.5809 38.8875 61.1108 40.4005 55.2395L38.8511 54.8403C37.3913 60.5054 34.8227 65.7823 31.3512 70.3538L32.6255 71.3215ZM30.9441 71.5514C31.4719 71.9522 32.2247 71.8493 32.6255 71.3215L31.3512 70.3538C31.4848 70.1779 31.7358 70.1436 31.9117 70.2772L30.9441 71.5514ZM30.7141 69.87C30.3133 70.3978 30.4163 71.1506 30.9441 71.5514L31.9117 70.2772C32.0876 70.4108 32.122 70.6617 31.9884 70.8377L30.7141 69.87ZM38.0764 54.6406C36.6431 60.2026 34.1214 65.383 30.7141 69.87L31.9884 70.8377C35.524 66.1816 38.1394 60.8081 39.6258 55.0399L38.0764 54.6406ZM39.5379 53.778C38.8961 53.6127 38.2418 53.9989 38.0764 54.6406L39.6258 55.0399C39.5707 55.2538 39.3526 55.3825 39.1386 55.3274L39.5379 53.778Z" fill="#00664F"/>
<path d="M40.0543 51.0627C40.8906 45.9666 40.8503 40.6296 39.7983 35.2607C39.3485 32.8948 37.1133 31.366 34.8183 31.8423C32.5238 32.3186 31.0385 34.6189 31.5013 36.9809C33.8228 48.6718 30.1141 60.1792 22.587 68.1227" stroke="#00664F" stroke-width="1.6" stroke-linecap="round"/>
<path d="M40.9746 63.9464L40.2444 63.6196L40.9746 63.9464ZM40.7729 63.4179L40.4461 64.1481H40.4461L40.7729 63.4179ZM37.0665 71.0381L37.7326 71.481L37.0665 71.0381ZM36.5119 71.1497L36.0689 71.8158H36.0689L36.5119 71.1497ZM36.4003 70.5951L37.0665 71.0381L37.0665 71.0381L36.4003 70.5951ZM40.2444 63.6196L40.9746 63.9464H40.9747L40.2444 63.6196ZM44.3243 34.3265L43.5389 34.4787L43.5393 34.4803L44.3243 34.3265ZM33.9043 27.2005L33.7418 26.4172L33.9043 27.2005ZM42.0713 61.2892L42.8194 61.5727V61.5727L42.0713 61.2892ZM41.5556 61.5216L41.2721 62.2697V62.2697L41.5556 61.5216ZM41.3232 61.0058L42.0713 61.2892L41.3232 61.0058ZM43.5392 34.4799L42.754 34.6331L42.7541 34.6337L43.5392 34.4799ZM43.539 34.4791L42.7536 34.6313L42.7538 34.6322L43.539 34.4791ZM34.0669 27.9838L34.2295 28.7671V28.7671L34.0669 27.9838ZM33.594 27.6735L32.8107 27.836L33.594 27.6735ZM31.3004 29.1366L30.8583 28.4699L31.3004 29.1366ZM31.4127 28.5822L32.0795 28.1402L32.0795 28.1402L31.4127 28.5822ZM27.7635 37.76L26.9784 37.9138L26.979 37.9166L27.7635 37.76ZM24.3906 59.2031L25.0886 59.594L25.0886 59.594L24.3906 59.2031ZM23.8461 59.3568L24.237 58.6587L23.8461 59.3568ZM23.6925 58.8123L24.3906 59.2031L24.3906 59.2031L23.6925 58.8123ZM26.9789 37.9159L26.1941 38.0711L26.1943 38.0725L26.9789 37.9159ZM26.9786 37.9145L26.1935 38.0684L26.1938 38.0698L26.9786 37.9145ZM30.8583 28.4699L30.4162 27.8031V27.8031L30.8583 28.4699ZM22.9199 61.5747L22.2596 61.1229H22.2596L22.9199 61.5747ZM22.8156 61.0187L22.3639 61.6789L22.8156 61.0187ZM18.8792 66.3542L18.3244 65.7779H18.3244L18.8792 66.3542ZM18.3136 66.3434L18.8899 65.7886L18.8899 65.7886L18.3136 66.3434ZM18.3244 65.7779L17.7695 65.2015H17.7695L18.3244 65.7779ZM22.2596 61.1229L21.5994 60.6712L22.2596 61.1229ZM41.7049 64.2732C41.9756 63.6682 41.7047 62.9584 41.0997 62.6877L40.4461 64.1481C40.2445 64.0578 40.1542 63.8212 40.2444 63.6196L41.7049 64.2732ZM37.7326 71.481C39.2493 69.2001 40.5791 66.7886 41.7049 64.2732L40.2444 63.6196C39.1548 66.0543 37.8679 68.388 36.4003 70.5951L37.7326 71.481ZM36.0689 71.8158C36.6208 72.1828 37.3657 72.0329 37.7326 71.481L36.4003 70.5951C36.5226 70.4111 36.7709 70.3612 36.9549 70.4835L36.0689 71.8158ZM35.7341 70.1521C35.3672 70.704 35.5171 71.4489 36.0689 71.8158L36.9549 70.4835C37.1388 70.6058 37.1888 70.8541 37.0665 71.0381L35.7341 70.1521ZM39.5142 63.2928C38.4427 65.6871 37.1772 67.982 35.7341 70.1521L37.0665 71.0381C38.5586 68.7941 39.867 66.4215 40.9746 63.9464L39.5142 63.2928ZM41.0997 62.6877C40.4948 62.4169 39.785 62.6879 39.5142 63.2928L40.9747 63.9464C40.8844 64.148 40.6478 64.2383 40.4461 64.1481L41.0997 62.6877ZM45.1097 34.1743C44.0749 28.8344 39.0013 25.3256 33.7418 26.4172L34.0669 27.9838C38.4146 27.0814 42.6662 29.9753 43.5389 34.4787L45.1097 34.1743ZM42.8194 61.5727C46.0146 53.1401 46.9759 43.6991 45.1094 34.1727L43.5393 34.4803C45.3468 43.7061 44.4156 52.8444 41.3232 61.0058L42.8194 61.5727ZM41.2721 62.2697C41.8919 62.5045 42.5846 62.1924 42.8194 61.5727L41.3232 61.0058C41.4015 60.7992 41.6324 60.6952 41.839 60.7735L41.2721 62.2697ZM40.5751 60.7223C40.3403 61.3421 40.6524 62.0348 41.2721 62.2697L41.839 60.7735C42.0456 60.8517 42.1496 61.0827 42.0713 61.2892L40.5751 60.7223ZM42.7541 34.6337C44.5323 43.7094 43.6161 52.6965 40.5751 60.7223L42.0713 61.2892C45.2151 52.9921 46.1614 43.7023 44.3243 34.3261L42.7541 34.6337ZM42.7538 34.6322L42.754 34.6331L44.3244 34.3268L44.3242 34.326L42.7538 34.6322ZM34.2295 28.7671C38.1222 27.9592 41.9623 30.5468 42.7536 34.6313L44.3244 34.3269C43.3708 29.4047 38.7078 26.2035 33.9043 27.2005L34.2295 28.7671ZM32.8107 27.836C32.9454 28.4849 33.5806 28.9018 34.2295 28.7671L33.9043 27.2005C34.1206 27.1556 34.3324 27.2946 34.3773 27.5109L32.8107 27.836ZM33.7418 26.4172C33.0929 26.5519 32.676 27.1871 32.8107 27.836L34.3773 27.5109C34.4222 27.7272 34.2832 27.9389 34.0669 27.9838L33.7418 26.4172ZM31.7424 29.8034C32.2948 29.4372 32.4457 28.6925 32.0795 28.1402L30.746 29.0243C30.6239 28.8402 30.6742 28.5919 30.8583 28.4699L31.7424 29.8034ZM28.5486 37.6062C27.9352 34.4747 29.3056 31.419 31.7424 29.8034L30.8583 28.4699C27.8861 30.4404 26.2395 34.1418 26.9784 37.9138L28.5486 37.6062ZM25.0886 59.594C28.6836 53.1731 30.1103 45.431 28.5481 37.6034L26.979 37.9166C28.4639 45.3566 27.1082 52.7118 23.6925 58.8123L25.0886 59.594ZM23.4553 60.0548C24.0336 60.3786 24.7648 60.1722 25.0886 59.594L23.6925 58.8123C23.8005 58.6196 24.0442 58.5508 24.237 58.6587L23.4553 60.0548ZM22.9945 58.4215C22.6707 58.9998 22.877 59.731 23.4553 60.0548L24.237 58.6587C24.4297 58.7666 24.4985 59.0104 24.3906 59.2031L22.9945 58.4215ZM26.1943 38.0725C27.6408 45.319 26.3206 52.481 22.9945 58.4215L24.3906 59.2031C27.896 52.9423 29.2872 45.3934 27.7634 37.7593L26.1943 38.0725ZM26.1938 38.0698L26.1941 38.0711L27.7637 37.7607L27.7634 37.7593L26.1938 38.0698ZM30.4162 27.8031C27.1762 29.9512 25.3915 33.9759 26.1935 38.0684L27.7637 37.7607C27.0871 34.3087 28.5957 30.9298 31.3004 29.1366L30.4162 27.8031ZM32.0795 28.1402C31.7133 27.5878 30.9686 27.4369 30.4162 27.8031L31.3004 29.1366C31.1162 29.2587 30.868 29.2084 30.746 29.0243L32.0795 28.1402ZM23.5801 62.0265C23.9544 61.4795 23.8144 60.7327 23.2674 60.3585L22.3639 61.6789C22.1815 61.5542 22.1349 61.3052 22.2596 61.1229L23.5801 62.0265ZM19.4341 66.9305C20.98 65.442 22.3685 63.7971 23.5801 62.0265L22.2596 61.1229C21.1089 62.8046 19.7909 64.3659 18.3244 65.7779L19.4341 66.9305ZM17.7373 66.8983C18.197 67.3757 18.9566 67.3901 19.4341 66.9305L18.3244 65.7779C18.4835 65.6246 18.7367 65.6294 18.8899 65.7886L17.7373 66.8983ZM17.7695 65.2015C17.2921 65.6612 17.2777 66.4209 17.7373 66.8983L18.8899 65.7886C19.0432 65.9477 19.0384 66.2009 18.8792 66.3542L17.7695 65.2015ZM21.5994 60.6712C20.4792 62.3083 19.1963 63.8278 17.7695 65.2015L18.8792 66.3542C20.3855 64.904 21.7387 63.3008 22.9199 61.5747L21.5994 60.6712ZM23.2674 60.3585C22.7204 59.9842 21.9737 60.1242 21.5994 60.6712L22.9199 61.5747C22.7951 61.757 22.5462 61.8037 22.3639 61.6789L23.2674 60.3585Z" fill="#00664F"/>
<path d="M42.1116 70.1877C48.189 59.5262 50.6261 46.6148 48.0652 33.5454L48.0712 33.5428C46.6885 26.4863 40.0097 21.9194 33.153 23.3424C26.296 24.7653 21.8582 31.6384 23.2412 38.6952L23.2644 38.691C25.1343 48.2359 21.678 57.613 15.0015 63.5636" stroke="#00664F" stroke-width="1.6" stroke-linecap="round"/>
<path d="M47.7577 68.5236C52.8423 57.7827 54.6705 45.3035 52.1988 32.6881C50.3585 23.282 41.4581 17.1962 32.3205 19.0923C23.1823 20.9887 17.2683 30.1484 19.1109 39.5527C20.7303 47.7128 17.6525 55.7276 11.7991 60.6615" stroke="#00664F" stroke-width="1.6" stroke-linecap="round"/>
<path d="M15.6461 42.077L14.8499 42.1552L15.6461 42.077ZM15.2089 41.718L15.1308 40.9218L15.2089 41.718ZM9.25925 57.7134L8.74951 57.0968H8.74951L9.25925 57.7134ZM8.69609 57.66L8.07952 58.1697H8.07952L8.69609 57.66ZM8.74951 57.0968L9.25925 57.7134H9.25925L8.74951 57.0968ZM14.8499 42.1552L14.0537 42.2333L14.8499 42.1552ZM31.5688 15.234L30.7855 15.3966L30.948 16.1799L31.7313 16.0173L31.5688 15.234ZM49.0622 19.8896L49.5889 19.2874V19.2874L49.0622 19.8896ZM31.5139 14.9696L32.2972 14.807L30.7306 15.1321L31.5139 14.9696ZM31.5688 15.234L31.7313 16.0173L32.5146 15.8548L32.3521 15.0715L31.5688 15.234ZM15.0728 38.3092L14.2769 38.39L15.0728 38.3092ZM14.7153 38.7475L14.7961 39.5434L14.7961 39.5434L14.7153 38.7475ZM14.2769 38.39L13.481 38.4708L14.2769 38.39ZM31.4062 14.4507L31.5688 15.234L31.5688 15.234L31.4062 14.4507ZM49.5889 19.2874L50.1155 18.6852V18.6852L49.5889 19.2874ZM52.0236 21.7877L52.6395 21.2771L52.0236 21.7877ZM51.4604 21.7351L50.9498 21.1192L51.4604 21.7351ZM56.7237 31.7524L55.9386 31.9063L55.9386 31.9063L56.7237 31.7524ZM57.7818 47.8725L58.5802 47.9233L57.7818 47.8725ZM57.3572 48.2463L57.3064 49.0447H57.3064L57.3572 48.2463ZM56.9834 47.8217L56.185 47.7709L56.9834 47.8217ZM55.9386 31.9063L56.7237 31.7524L56.7231 31.7494L55.9386 31.9063ZM55.9386 31.9063L55.1536 32.0601L55.1542 32.0632L55.9386 31.9063ZM51.4077 22.2983L50.7919 22.8089L51.4077 22.2983ZM57.5319 50.7479L56.7367 50.6602L57.5319 50.7479ZM53.9989 65.6442L54.7488 65.923V65.923L53.9989 65.6442ZM53.4846 65.8798L53.7634 65.1299L53.4846 65.8798ZM53.2491 65.3655L52.4992 65.0868L53.2491 65.3655ZM56.7367 50.6602L55.9415 50.5726L56.7367 50.6602ZM16.4423 41.9989C16.3776 41.3394 15.7904 40.8571 15.1308 40.9218L15.2871 42.5142C15.0672 42.5358 14.8715 42.375 14.8499 42.1552L16.4423 41.9989ZM9.76899 58.33C14.4248 54.4809 17.0687 48.3845 16.4423 41.9989L14.8499 42.1552C15.4238 48.0048 13.0001 53.5827 8.74951 57.0968L9.76899 58.33ZM8.07952 58.1697C8.5018 58.6805 9.2582 58.7522 9.76899 58.33L8.74951 57.0968C8.91977 56.9561 9.17191 56.98 9.31267 57.1502L8.07952 58.1697ZM8.23977 56.4802C7.72898 56.9025 7.65724 57.6589 8.07952 58.1697L9.31267 57.1502C9.45343 57.3205 9.42951 57.5726 9.25925 57.7134L8.23977 56.4802ZM14.0537 42.2333C14.6013 47.815 12.2878 53.1336 8.23977 56.4802L9.25925 57.7134C13.7125 54.0318 16.2463 48.1947 15.6461 42.077L14.0537 42.2333ZM15.1308 40.9218C14.4713 40.9865 13.989 41.5737 14.0537 42.2333L15.6461 42.077C15.6677 42.2969 15.5069 42.4926 15.2871 42.5142L15.1308 40.9218ZM31.7313 16.0173C37.9341 14.7302 44.0481 16.567 48.5355 20.4917L49.5889 19.2874C44.7454 15.0513 38.127 13.0561 31.4062 14.4507L31.7313 16.0173ZM30.7306 15.1321L30.7855 15.3966L32.3521 15.0715L32.2972 14.807L30.7306 15.1321ZM32.3521 15.0715L32.2972 14.807L30.7306 15.1321L30.7855 15.3966L32.3521 15.0715ZM15.8687 38.2284C14.8106 27.8064 21.6144 18.1167 31.7313 16.0173L31.4062 14.4507C20.4451 16.7253 13.1404 27.1955 14.2769 38.39L15.8687 38.2284ZM14.7961 39.5434C15.4554 39.4765 15.9357 38.8877 15.8687 38.2284L14.2769 38.39C14.2546 38.1702 14.4147 37.9739 14.6344 37.9516L14.7961 39.5434ZM13.481 38.4708C13.5479 39.1301 14.1367 39.6104 14.7961 39.5434L14.6345 37.9516C14.8542 37.9293 15.0505 38.0894 15.0728 38.3092L13.481 38.4708ZM31.2437 13.6674C19.8602 16.0296 12.3053 26.8903 13.481 38.4708L15.0728 38.3092C13.9755 27.5008 21.0299 17.421 31.5688 15.234L31.2437 13.6674ZM50.1155 18.6852C45.0942 14.2935 38.2235 12.219 31.2437 13.6674L31.5688 15.234C38.0305 13.8931 44.3968 15.8092 49.0622 19.8896L50.1155 18.6852ZM50.2288 20.3785C50.6651 19.8796 50.6144 19.1215 50.1155 18.6852L49.0622 19.8896C48.8959 19.7441 48.879 19.4914 49.0244 19.3251L50.2288 20.3785ZM48.5355 20.4917C49.0344 20.928 49.7925 20.8773 50.2288 20.3785L49.0244 19.3251C49.1699 19.1588 49.4226 19.1419 49.5889 19.2874L48.5355 20.4917ZM52.6395 21.2771C52.2165 20.7669 51.46 20.6962 50.9498 21.1192L51.971 22.351C51.8009 22.492 51.5487 22.4684 51.4077 22.2983L52.6395 21.2771ZM57.5088 31.5986C56.7355 27.6525 55.0164 24.1441 52.6395 21.2771L51.4077 22.2983C53.6165 24.9623 55.2175 28.2263 55.9386 31.9063L57.5088 31.5986ZM58.5802 47.9233C58.9204 42.5778 58.5871 37.0993 57.5088 31.5985L55.9386 31.9063C56.9903 37.2709 57.315 42.6118 56.9834 47.8217L58.5802 47.9233ZM57.3064 49.0447C57.9678 49.0868 58.5381 48.5847 58.5802 47.9233L56.9834 47.8217C56.9975 47.6012 57.1876 47.4339 57.408 47.4479L57.3064 49.0447ZM56.185 47.7709C56.1429 48.4323 56.645 49.0026 57.3064 49.0447L57.408 47.4479C57.6285 47.462 57.7958 47.6521 57.7818 47.8725L56.185 47.7709ZM55.1536 32.0602C56.1919 37.3567 56.5123 42.6288 56.185 47.7709L57.7818 47.8725C58.1177 42.5948 57.7887 37.1851 56.7237 31.7524L55.1536 32.0602ZM55.1542 32.0632L55.1542 32.0632L56.7231 31.7494L56.7231 31.7494L55.1542 32.0632ZM50.7919 22.8089C52.9165 25.3715 54.4585 28.5131 55.1536 32.0601L56.7237 31.7524C55.9765 27.9394 54.3164 24.5532 52.0236 21.7877L50.7919 22.8089ZM50.9498 21.1192C50.4396 21.5422 50.3689 22.2987 50.7919 22.8089L52.0236 21.7877C52.1646 21.9578 52.141 22.21 51.971 22.351L50.9498 21.1192ZM58.3271 50.8356C58.3997 50.1769 57.9246 49.584 57.2658 49.5113L57.0905 51.1017C56.8709 51.0775 56.7125 50.8798 56.7367 50.6602L58.3271 50.8356ZM54.7488 65.923C56.5364 61.1137 57.7521 56.0495 58.3271 50.8356L56.7367 50.6602C56.1763 55.742 54.9914 60.678 53.2491 65.3655L54.7488 65.923ZM53.2059 66.6297C53.8271 66.8606 54.5179 66.5442 54.7488 65.923L53.2491 65.3655C53.326 65.1584 53.5563 65.053 53.7634 65.1299L53.2059 66.6297ZM52.4992 65.0868C52.2683 65.708 52.5847 66.3988 53.2059 66.6297L53.7634 65.1299C53.9704 65.2069 54.0759 65.4372 53.9989 65.6442L52.4992 65.0868ZM55.9415 50.5726C55.3884 55.5883 54.2189 60.4602 52.4992 65.0868L53.9989 65.6442C55.7639 60.8959 56.9642 55.8958 57.5319 50.7479L55.9415 50.5726ZM57.2658 49.5113C56.6071 49.4387 56.0142 49.9138 55.9415 50.5726L57.5319 50.7479C57.5077 50.9675 57.31 51.1259 57.0905 51.1017L57.2658 49.5113Z" fill="#00664F"/>
<path d="M61.9445 38.9818L62.7424 38.9233V38.9233L61.9445 38.9818ZM59.9874 60.6724L59.213 60.4718V60.4718L59.9874 60.6724ZM59.4999 60.9593L59.7005 60.1849L59.4999 60.9593ZM59.213 60.4718L58.4386 60.2712L59.213 60.4718ZM61.1466 39.0403L60.3488 39.0989L61.1466 39.0403ZM60.8584 30.8958L60.0734 31.0498L60.0735 31.0504L60.8584 30.8958ZM30.5736 10.2005L30.7361 10.9838L30.5736 10.2005ZM60.8584 30.8959L61.6435 30.7421L61.6433 30.7413L60.8584 30.8959ZM61.5382 35.0357L60.7451 35.1409V35.1409L61.5382 35.0357ZM61.1943 35.4848L61.089 34.6918H61.089L61.1943 35.4848ZM60.7451 35.1409L61.5382 35.0357V35.0357L60.7451 35.1409ZM60.0734 31.0498L60.8584 30.896L60.8584 30.8958L60.0734 31.0498ZM30.7361 10.9838L30.8986 11.7671L30.7361 10.9838ZM30.2632 10.6734L31.0465 10.5109L30.2632 10.6734ZM26.6844 12.1961L26.3898 11.4523V11.4523L26.6844 12.1961ZM26.909 11.6769L27.6527 11.3823L27.6527 11.3823L26.909 11.6769ZM11.2431 41.1898L10.458 41.3436L10.4584 41.3457L11.2431 41.1898ZM6.88604 54.1067L7.41181 54.7097L7.41181 54.7097L6.88604 54.1067ZM6.32167 54.0681L6.92463 53.5423L6.32167 54.0681ZM6.36026 53.5037L5.83449 52.9008L5.83448 52.9008L6.36026 53.5037ZM10.4583 41.3454L9.67346 41.5003L9.67366 41.5013L10.4583 41.3454ZM10.4581 41.3443L9.67304 41.4981L9.67325 41.4992L10.4581 41.3443ZM26.3898 11.4523L26.0952 10.7085L26.3898 11.4523ZM62.7424 38.9233C62.6939 38.2623 62.1187 37.7658 61.4578 37.8143L61.5748 39.41C61.3545 39.4262 61.1628 39.2607 61.1466 39.0403L62.7424 38.9233ZM60.7619 60.8731C62.5792 53.8584 63.2951 46.4572 62.7424 38.9233L61.1466 39.0403C61.6864 46.397 60.9873 53.6231 59.213 60.4718L60.7619 60.8731ZM59.2993 61.7338C59.9408 61.9 60.5957 61.5146 60.7619 60.8731L59.213 60.4718C59.2684 60.2579 59.4867 60.1295 59.7005 60.1849L59.2993 61.7338ZM58.4386 60.2712C58.2724 60.9127 58.6577 61.5676 59.2993 61.7338L59.7005 60.1849C59.9144 60.2403 60.0428 60.4586 59.9874 60.6724L58.4386 60.2712ZM60.3488 39.0989C60.882 46.3668 60.1914 53.5054 58.4386 60.2712L59.9874 60.6724C61.7832 53.7407 62.4907 46.4271 61.9445 38.9818L60.3488 39.0989ZM61.4578 37.8143C60.7968 37.8628 60.3003 38.4379 60.3488 39.0989L61.9445 38.9818C61.9607 39.2021 61.7952 39.3938 61.5748 39.41L61.4578 37.8143ZM61.6434 30.7417C58.7536 16.0175 44.7945 6.43279 30.411 9.41715L30.7361 10.9838C44.2078 8.18861 57.3471 17.1588 60.0734 31.0498L61.6434 30.7417ZM61.6433 30.7413L61.6433 30.7412L60.0735 31.0504L60.0735 31.0505L61.6433 30.7413ZM62.3312 34.9305C62.1463 33.5367 61.9174 32.14 61.6435 30.7421L60.0733 31.0497C60.3409 32.4154 60.5645 33.7796 60.7451 35.1409L62.3312 34.9305ZM61.2995 36.2779C61.9565 36.1907 62.4184 35.5874 62.3312 34.9304L60.7451 35.1409C60.7161 34.9219 60.87 34.7208 61.089 34.6918L61.2995 36.2779ZM59.9521 35.2461C60.0393 35.9031 60.6425 36.3651 61.2995 36.2779L61.089 34.6918C61.308 34.6627 61.5091 34.8167 61.5382 35.0357L59.9521 35.2461ZM59.2883 31.2037C59.5527 32.5532 59.7736 33.9012 59.9521 35.2462L61.5382 35.0357C61.3554 33.6582 61.1292 32.2778 60.8584 30.896L59.2883 31.2037ZM30.8986 11.7671C43.9147 9.06646 56.6439 17.7297 59.2883 31.2039L60.8584 30.8958C58.0503 16.588 44.501 7.31072 30.5736 10.2005L30.8986 11.7671ZM29.4799 10.8359C29.6145 11.4848 30.2497 11.9017 30.8986 11.7671L30.5736 10.2005C30.7899 10.1556 31.0016 10.2946 31.0465 10.5109L29.4799 10.8359ZM30.411 9.41715C29.7621 9.5518 29.3452 10.187 29.4799 10.8359L31.0465 10.5109C31.0914 10.7272 30.9524 10.9389 30.7361 10.9838L30.411 9.41715ZM26.979 12.9399C27.5951 12.6958 27.8968 11.9985 27.6527 11.3823L26.1652 11.9715C26.0838 11.7661 26.1844 11.5337 26.3898 11.4523L26.979 12.9399ZM12.0281 41.036C9.66303 28.9631 16.2229 17.2003 26.979 12.9399L26.3898 11.4523C14.9034 16.002 7.94748 28.5285 10.458 41.3436L12.0281 41.036ZM7.41181 54.7097C11.1374 51.461 13.072 46.2896 12.0277 41.0339L10.4584 41.3457C11.3883 46.0256 9.66457 50.6224 6.36026 53.5037L7.41181 54.7097ZM5.71871 54.5939C6.15428 55.0934 6.91231 55.1452 7.41181 54.7097L6.36027 53.5037C6.52676 53.3586 6.77944 53.3758 6.92463 53.5423L5.71871 54.5939ZM5.83448 52.9008C5.33498 53.3364 5.28314 54.0944 5.71871 54.5939L6.92463 53.5423C7.06982 53.7088 7.05254 53.9615 6.88604 54.1067L5.83448 52.9008ZM9.67366 41.5013C10.5465 45.8934 8.92817 50.2031 5.83449 52.9008L6.88604 54.1067C10.4011 51.0416 12.2303 46.1573 11.243 41.1894L9.67366 41.5013ZM9.67325 41.4992L9.67346 41.5003L11.2432 41.1904L11.243 41.1894L9.67325 41.4992ZM26.0952 10.7085C14.2434 15.403 7.08947 28.3117 9.67304 41.4981L11.2432 41.1905C8.80502 28.7462 15.563 16.6012 26.6844 12.1961L26.0952 10.7085ZM27.6527 11.3823C27.4087 10.7661 26.7113 10.4645 26.0952 10.7085L26.6844 12.1961C26.479 12.2775 26.2465 12.1769 26.1652 11.9715L27.6527 11.3823Z" fill="#00664F"/>
<path d="M66.3264 42.3879L65.5266 42.4049L66.3264 42.3879ZM65.8256 52.4844L66.6198 52.5805L65.8256 52.4844ZM65.3805 52.8335L65.4766 52.0392H65.4766L65.3805 52.8335ZM65.0314 52.3883L65.8256 52.4844L65.0314 52.3883ZM65.5266 42.4049L64.7267 42.4218L65.5266 42.4049ZM57.6224 15.216L58.2167 14.6804V14.6804L57.6224 15.216ZM29.741 5.95054L29.5784 5.16723L28.7951 5.32976L28.9577 6.11308L29.741 5.95054ZM57.5931 15.7809L58.1287 16.3752L58.1287 16.3752L57.5931 15.7809ZM57.0282 15.7516L57.6224 15.216V15.216L57.0282 15.7516ZM29.9035 6.73386L29.741 5.95054L29.741 5.95054L29.9035 6.73386ZM8.92519 24.2258L8.18783 23.9155H8.18783L8.92519 24.2258ZM8.40135 24.4393L8.09103 25.1767L8.09103 25.1767L8.40135 24.4393ZM8.18783 23.9155L7.45047 23.6052L8.18783 23.9155ZM29.741 5.95054L30.5243 5.788L30.3618 5.00469L29.5784 5.16723L29.741 5.95054ZM7.43659 28.7019L8.21293 28.895L7.43659 28.7019ZM7.11291 42.0464L6.32783 42.2002L6.32837 42.2029L7.11291 42.0464ZM4.93196 50.0343L5.52639 50.5697H5.52639L4.93196 50.0343ZM4.36704 50.0638L3.83165 50.6582H3.83165L4.36704 50.0638ZM4.33753 49.4989L4.93196 50.0343L4.93196 50.0343L4.33753 49.4989ZM6.32824 42.2023L5.54345 42.3575L5.54371 42.3588L6.32824 42.2023ZM6.32797 42.2009L5.5429 42.3547L5.54318 42.3562L6.32797 42.2009ZM6.66025 28.5087L7.43659 28.7019L6.66025 28.5087ZM67.1262 42.3709C67.1121 41.7083 66.5636 41.1826 65.901 41.1966L65.935 42.7963C65.7141 42.801 65.5312 42.6257 65.5266 42.4049L67.1262 42.3709ZM66.6198 52.5805C67.0256 49.226 67.1993 45.8156 67.1262 42.3709L65.5266 42.4049C65.598 45.7734 65.4282 49.1082 65.0314 52.3883L66.6198 52.5805ZM65.2844 53.6277C65.9423 53.7073 66.5402 53.2384 66.6198 52.5805L65.0314 52.3883C65.0579 52.169 65.2572 52.0127 65.4766 52.0392L65.2844 53.6277ZM64.2372 52.2922C64.1576 52.9502 64.6264 53.5481 65.2844 53.6277L65.4766 52.0392C65.6959 52.0658 65.8521 52.2651 65.8256 52.4844L64.2372 52.2922ZM64.7267 42.4218C64.7974 45.7523 64.6295 49.0494 64.2372 52.2922L65.8256 52.4844C66.2269 49.1671 66.3986 45.7945 66.3264 42.3879L64.7267 42.4218ZM65.901 41.1966C65.2384 41.2107 64.7127 41.7592 64.7267 42.4218L66.3264 42.3879C66.3311 42.6087 66.1558 42.7916 65.935 42.7963L65.901 41.1966ZM58.2167 14.6804C51.1867 6.88047 40.4802 2.90514 29.5784 5.16723L29.9035 6.73386C40.2155 4.59415 50.3557 8.34832 57.0282 15.7516L58.2167 14.6804ZM58.1287 16.3752C58.621 15.9314 58.6604 15.1727 58.2167 14.6804L57.0282 15.7516C56.8803 15.5875 56.8934 15.3346 57.0575 15.1867L58.1287 16.3752ZM56.4339 16.2872C56.8776 16.7795 57.6364 16.8189 58.1287 16.3752L57.0575 15.1866C57.2216 15.0388 57.4745 15.0519 57.6224 15.216L56.4339 16.2872ZM30.0661 7.51717C40.0832 5.43863 49.9402 9.08231 56.4339 16.2872L57.6224 15.216C50.7712 7.61437 40.3478 3.74965 29.741 5.95054L30.0661 7.51717ZM9.66255 24.5361C13.2314 16.0561 20.6315 9.47485 30.0661 7.51717L29.741 5.95054C19.7553 8.02258 11.9463 14.9847 8.18783 23.9155L9.66255 24.5361ZM8.09103 25.1767C8.70188 25.4338 9.40548 25.147 9.66255 24.5361L8.18783 23.9155C8.27352 23.7119 8.50805 23.6163 8.71167 23.702L8.09103 25.1767ZM7.45047 23.6052C7.19339 24.216 7.48019 24.9196 8.09103 25.1767L8.71167 23.702C8.91528 23.7877 9.01088 24.0222 8.92519 24.2258L7.45047 23.6052ZM29.5784 5.16723C19.3171 7.29647 11.3038 14.4491 7.45047 23.6052L8.92519 24.2258C12.5889 15.5204 20.1934 8.74871 29.9035 6.73386L29.5784 5.16723ZM30.6056 6.17966L30.5243 5.788L28.9577 6.11308L29.0389 6.50474L30.6056 6.17966ZM28.9577 6.11308L29.0389 6.50474L30.6056 6.17966L30.5243 5.78801L28.9577 6.11308ZM8.21293 28.895C8.37292 28.2518 7.98125 27.6008 7.33811 27.4408L6.95186 28.9935C6.73748 28.9401 6.60693 28.7231 6.66025 28.5087L8.21293 28.895ZM7.89799 41.8926C7.02512 37.4372 7.18742 33.0175 8.21293 28.895L6.66025 28.5087C5.57939 32.8537 5.40903 37.5103 6.32783 42.2002L7.89799 41.8926ZM5.52639 50.5697C7.55773 48.3144 8.54283 45.1254 7.89745 41.8899L6.32837 42.2029C6.8715 44.9258 6.04264 47.6058 4.33753 49.4989L5.52639 50.5697ZM3.83165 50.6582C4.32409 51.1018 5.08285 51.0621 5.52639 50.5697L4.33753 49.4989C4.48537 49.3347 4.73829 49.3215 4.90244 49.4694L3.83165 50.6582ZM3.7431 48.9635C3.29956 49.4559 3.3392 50.2147 3.83165 50.6582L4.90244 49.4694C5.06659 49.6172 5.07981 49.8701 4.93196 50.0343L3.7431 48.9635ZM5.54371 42.3588C6.03598 44.8258 5.28514 47.2514 3.7431 48.9635L4.93196 50.0343C6.80035 47.9599 7.7073 45.0251 7.11278 42.0457L5.54371 42.3588ZM5.54318 42.3562L5.54345 42.3575L7.11303 42.047L7.11277 42.0457L5.54318 42.3562ZM5.88391 28.3156C4.77532 32.7721 4.60096 37.5474 5.5429 42.3547L7.11305 42.0471C6.21706 37.4742 6.38335 32.9358 7.43659 28.7019L5.88391 28.3156ZM7.33811 27.4408C6.69497 27.2808 6.0439 27.6725 5.88391 28.3156L7.43659 28.7019C7.38326 28.9162 7.16624 29.0468 6.95186 28.9935L7.33811 27.4408Z" fill="#00664F"/>
<path d="M65.6843 37.8454C65.4655 35.2795 65.1059 32.6997 64.5995 30.1154C63.8003 26.047 62.2462 22.3338 60.1177 19.0991" stroke="#00664F" stroke-width="1.6" stroke-linecap="round"/>
</svg>
