<svg width="44" height="44" viewBox="0 0 44 44" fill="none" xmlns="http://www.w3.org/2000/svg">
<mask id="path-1-inside-1_1_681" fill="white">
<path fill-rule="evenodd" clip-rule="evenodd" d="M17.7306 0.927653C29.3542 -1.41609 40.6759 6.1063 43.0197 17.7303C43.0742 18.001 42.8991 18.2647 42.6284 18.3193C42.3577 18.3738 42.094 18.1987 42.0394 17.928C39.8048 6.84532 29.0104 -0.326648 17.9283 1.90792C17.6576 1.96251 17.3939 1.78731 17.3393 1.51662C17.2847 1.24592 17.4599 0.982235 17.7306 0.927653ZM15.257 2.10035C15.3513 2.35989 15.2173 2.64674 14.9578 2.74104C5.59931 6.1414 -0.119919 15.9626 1.90793 26.02C1.96251 26.2907 1.78732 26.5544 1.51662 26.6089C1.24593 26.6635 0.982241 26.4883 0.927661 26.2176C-1.19943 15.6681 4.79976 5.36795 14.6163 1.80116C14.8758 1.70686 15.1627 1.84081 15.257 2.10035Z"/>
</mask>
<path d="M43.0197 17.7303L43.9999 17.5327V17.5327L43.0197 17.7303ZM17.7306 0.927653L17.9283 1.90792L17.7306 0.927653ZM42.6284 18.3193L42.826 19.2995L42.826 19.2995L42.6284 18.3193ZM42.0394 17.928L41.0591 18.1256V18.1256L42.0394 17.928ZM17.9283 1.90792L18.1259 2.88819L17.9283 1.90792ZM17.3393 1.51662L16.359 1.71428V1.71428L17.3393 1.51662ZM14.9578 2.74104L14.6163 1.80116L14.6163 1.80116L14.9578 2.74104ZM15.257 2.10035L16.1969 1.75885L15.257 2.10035ZM1.90793 26.02L0.927661 26.2176L1.90793 26.02ZM1.51662 26.6089L1.71427 27.5892H1.71428L1.51662 26.6089ZM0.927661 26.2176L-0.0526111 26.4153L0.927661 26.2176ZM14.6163 1.80116L14.9578 2.74104V2.74104L14.6163 1.80116ZM43.9999 17.5327C41.5471 5.36729 29.6979 -2.50553 17.533 -0.0526181L17.9283 1.90792C29.0104 -0.326648 39.8048 6.84532 42.0394 17.928L43.9999 17.5327ZM42.826 19.2995C43.6381 19.1358 44.1637 18.3447 43.9999 17.5327L42.0394 17.928C41.9848 17.6573 42.16 17.3936 42.4307 17.339L42.826 19.2995ZM41.0591 18.1256C41.2229 18.9377 42.0139 19.4633 42.826 19.2995L42.4307 17.339C42.7014 17.2844 42.9651 17.4596 43.0197 17.7303L41.0591 18.1256ZM18.1259 2.88819C28.6667 0.762793 38.9337 7.58434 41.0591 18.1256L43.0197 17.7303C40.6759 6.1063 29.3542 -1.41609 17.7306 0.927653L18.1259 2.88819ZM16.359 1.71428C16.5228 2.52636 17.3139 3.05194 18.1259 2.88819L17.7306 0.927653C18.0013 0.873071 18.265 1.04826 18.3196 1.31896L16.359 1.71428ZM17.533 -0.0526181C16.7209 0.111128 16.1953 0.902194 16.359 1.71428L18.3196 1.31896C18.3742 1.58965 18.199 1.85334 17.9283 1.90792L17.533 -0.0526181ZM15.2993 3.68092C16.0779 3.39801 16.4798 2.53747 16.1969 1.75885L14.3171 2.44185C14.2228 2.18231 14.3567 1.89546 14.6163 1.80116L15.2993 3.68092ZM2.88821 25.8223C0.959587 16.2571 6.3989 6.91484 15.2993 3.68092L14.6163 1.80116C4.79972 5.36797 -1.19942 15.6681 0.927661 26.2176L2.88821 25.8223ZM1.71428 27.5892C2.52636 27.4255 3.05195 26.6344 2.88821 25.8223L0.927661 26.2176C0.873081 25.9469 1.04828 25.6832 1.31897 25.6287L1.71428 27.5892ZM-0.0526111 26.4153C0.111129 27.2274 0.902189 27.7529 1.71427 27.5892L1.31898 25.6287C1.58967 25.5741 1.85335 25.7493 1.90793 26.02L-0.0526111 26.4153ZM14.2748 0.861277C4.00024 4.59449 -2.27895 15.3735 -0.0526111 26.4153L1.90793 26.02C-0.119911 15.9627 5.59927 6.14142 14.9578 2.74104L14.2748 0.861277ZM16.1969 1.75885C15.914 0.980224 15.0534 0.578367 14.2748 0.861277L14.9578 2.74104C14.6982 2.83534 14.4114 2.70139 14.3171 2.44185L16.1969 1.75885Z" fill="#FB7B7B" mask="url(#path-1-inside-1_1_681)"/>
<path d="M42.9464 21.2851C42.9075 20.1415 42.7744 18.9858 42.5408 17.827" stroke="#FB7B7B" stroke-linecap="round"/>
<path d="M1.42908 26.1167C1.48988 26.4178 1.55664 26.716 1.62967 27.0114" stroke="#FB7B7B" stroke-linecap="round"/>
<mask id="path-5-inside-2_1_681" fill="white">
<path fill-rule="evenodd" clip-rule="evenodd" d="M19.0323 38.8741C19.2654 39.0222 19.3342 39.3312 19.1862 39.5643C18.5152 40.6202 17.7628 41.6239 16.9357 42.5654C16.7534 42.7728 16.4375 42.7932 16.23 42.611C16.0226 42.4287 16.0022 42.1128 16.1844 41.9053C16.9775 41.0028 17.6988 40.0404 18.3421 39.028C18.4902 38.7949 18.7992 38.726 19.0323 38.8741ZM21.8805 21.4827C22.1512 21.4282 22.4149 21.6034 22.4695 21.874C23.6172 27.5664 22.6566 33.1956 20.126 37.9511C19.9963 38.1948 19.6935 38.2873 19.4497 38.1576C19.206 38.0279 19.1135 37.7251 19.2432 37.4813C21.6691 32.9227 22.5895 27.5288 21.4892 22.0717C21.4346 21.801 21.6098 21.5373 21.8805 21.4827Z"/>
</mask>
<path d="M19.1862 39.5643L18.3421 39.028H18.3421L19.1862 39.5643ZM19.0323 38.8741L19.5686 38.0301H19.5686L19.0323 38.8741ZM16.9357 42.5654L17.6869 43.2254L17.6869 43.2254L16.9357 42.5654ZM16.23 42.611L15.57 43.3622H15.57L16.23 42.611ZM16.1844 41.9053L15.4332 41.2453H15.4332L16.1844 41.9053ZM18.3421 39.028L17.4981 38.4917H17.4981L18.3421 39.028ZM22.4695 21.874L23.4497 21.6764V21.6764L22.4695 21.874ZM21.8805 21.4827L22.0781 22.463V22.463L21.8805 21.4827ZM20.126 37.9511L21.0088 38.4208H21.0088L20.126 37.9511ZM19.4497 38.1576L18.98 39.0404L19.4497 38.1576ZM19.2432 37.4813L20.126 37.9511H20.126L19.2432 37.4813ZM21.4892 22.0717L20.5089 22.2694V22.2694L21.4892 22.0717ZM20.0302 40.1006C20.4745 39.4013 20.2678 38.4743 19.5686 38.0301L18.496 39.7181C18.2629 39.5701 18.194 39.2611 18.3421 39.028L20.0302 40.1006ZM17.6869 43.2254C18.5482 42.2451 19.3316 41.2 20.0302 40.1006L18.3421 39.028C17.6988 40.0404 16.9775 41.0028 16.1844 41.9053L17.6869 43.2254ZM15.57 43.3622C16.1924 43.909 17.1401 43.8478 17.6869 43.2254L16.1844 41.9053C16.3667 41.6979 16.6826 41.6775 16.8901 41.8598L15.57 43.3622ZM15.4332 41.2453C14.8864 41.8677 14.9477 42.8154 15.57 43.3622L16.8901 41.8598C17.0975 42.042 17.1179 42.3579 16.9357 42.5654L15.4332 41.2453ZM17.4981 38.4917C16.8824 39.4606 16.1921 40.3816 15.4332 41.2453L16.9357 42.5654C17.7628 41.6239 18.5152 40.6202 19.1862 39.5643L17.4981 38.4917ZM19.5686 38.0301C18.8693 37.5858 17.9424 37.7925 17.4981 38.4917L19.1862 39.5643C19.0381 39.7973 18.7291 39.8662 18.496 39.7181L19.5686 38.0301ZM23.4497 21.6764C23.286 20.8643 22.4949 20.3387 21.6828 20.5025L22.0781 22.463C21.8075 22.5176 21.5438 22.3424 21.4892 22.0717L23.4497 21.6764ZM21.0088 38.4208C23.6442 33.4684 24.6449 27.6041 23.4497 21.6764L21.4892 22.0717C22.5895 27.5288 21.6691 32.9227 19.2432 37.4813L21.0088 38.4208ZM18.98 39.0404C19.7113 39.4295 20.6196 39.1522 21.0088 38.4208L19.2432 37.4813C19.373 37.2375 19.6757 37.1451 19.9195 37.2748L18.98 39.0404ZM18.3604 37.0115C17.9713 37.7429 18.2487 38.6512 18.98 39.0404L19.9195 37.2748C20.1633 37.4045 20.2557 37.7073 20.126 37.9511L18.3604 37.0115ZM20.5089 22.2694C21.5618 27.4911 20.6815 32.6498 18.3604 37.0115L20.126 37.9511C22.6566 33.1955 23.6172 27.5664 22.4695 21.874L20.5089 22.2694ZM21.6828 20.5025C20.8708 20.6662 20.3452 21.4573 20.5089 22.2694L22.4695 21.874C22.524 22.1447 22.3488 22.4084 22.0781 22.463L21.6828 20.5025Z" fill="#FB7B7B" mask="url(#path-5-inside-2_1_681)"/>
<mask id="path-7-inside-3_1_681" fill="white">
<path fill-rule="evenodd" clip-rule="evenodd" d="M24.3292 32.8596C24.5961 32.9304 24.7551 33.2041 24.6843 33.4711C23.751 36.9905 22.109 40.2685 19.8897 43.1084C19.7197 43.3259 19.4055 43.3645 19.1879 43.1945C18.9703 43.0244 18.9317 42.7102 19.1018 42.4926C21.2387 39.7581 22.8194 36.6021 23.7177 33.2147C23.7885 32.9478 24.0622 32.7888 24.3292 32.8596Z"/>
</mask>
<path d="M24.6843 33.4711L23.7177 33.2147V33.2147L24.6843 33.4711ZM24.3292 32.8596L24.0728 33.8262L24.0728 33.8262L24.3292 32.8596ZM19.8897 43.1084L19.1018 42.4926L19.1018 42.4926L19.8897 43.1084ZM19.1879 43.1945L19.8036 42.4065L19.8036 42.4065L19.1879 43.1945ZM19.1018 42.4926L19.8897 43.1084L19.8897 43.1084L19.1018 42.4926ZM23.7177 33.2147L22.7511 32.9584L22.7511 32.9584L23.7177 33.2147ZM25.6509 33.7274C25.8632 32.9266 25.3862 32.1054 24.5855 31.893L24.0728 33.8262C23.8059 33.7554 23.6469 33.4816 23.7177 33.2147L25.6509 33.7274ZM20.6777 43.7241C22.9792 40.7789 24.6826 37.3789 25.6509 33.7274L23.7177 33.2147C22.8194 36.6021 21.2387 39.7581 19.1018 42.4926L20.6777 43.7241ZM18.5721 43.9824C19.2249 44.4925 20.1676 44.3769 20.6777 43.7241L19.1018 42.4926C19.2718 42.275 19.586 42.2365 19.8036 42.4065L18.5721 43.9824ZM18.3138 41.8769C17.8037 42.5296 17.9194 43.4723 18.5721 43.9824L19.8036 42.4065C20.0212 42.5765 20.0598 42.8908 19.8897 43.1084L18.3138 41.8769ZM22.7511 32.9584C21.8878 36.2138 20.3684 39.2477 18.3138 41.8769L19.8897 43.1084C22.109 40.2685 23.751 36.9905 24.6843 33.4711L22.7511 32.9584ZM24.5855 31.893C23.7847 31.6807 22.9635 32.1577 22.7511 32.9584L24.6843 33.4711C24.6135 33.738 24.3398 33.897 24.0728 33.8262L24.5855 31.893Z" fill="#FB7B7B" mask="url(#path-7-inside-3_1_681)"/>
<path d="M24.7082 31.0008C25.2281 27.9222 25.2031 24.6982 24.5491 21.4548C24.2695 20.0256 22.8799 19.1021 21.4531 19.3898C20.0267 19.6775 19.1033 21.0671 19.391 22.494C20.8343 29.5565 18.5286 36.5081 13.8492 41.3067" stroke="#FB7B7B" stroke-linecap="round"/>
<mask id="path-10-inside-4_1_681" fill="white">
<path fill-rule="evenodd" clip-rule="evenodd" d="M25.2626 38.2309C25.5134 38.3465 25.6231 38.6434 25.5076 38.8943C24.8128 40.4028 23.9922 41.8489 23.0563 43.2164C22.9004 43.4443 22.5892 43.5027 22.3613 43.3467C22.1334 43.1908 22.0751 42.8796 22.2311 42.6517C23.1352 41.3304 23.9281 39.9333 24.5993 38.4759C24.7148 38.2251 25.0118 38.1154 25.2626 38.2309ZM20.8366 16.3323C23.9518 15.7041 26.9869 17.7202 27.609 20.8386C28.7613 26.5539 28.1676 32.2172 26.1955 37.2749C26.0952 37.5321 25.8053 37.6594 25.548 37.5591C25.2907 37.4587 25.1635 37.1689 25.2638 36.9116C27.1685 32.0268 27.742 26.5578 26.6286 21.0357L26.6284 21.0347C26.1149 18.4595 23.6084 16.7934 21.0343 17.3126C20.7636 17.3672 20.4999 17.192 20.4454 16.9213C20.3908 16.6506 20.5659 16.3869 20.8366 16.3323ZM19.549 17.2834C19.6986 17.5155 19.6316 17.825 19.3995 17.9745C17.8022 19.0035 16.9157 20.9388 17.3134 22.9121C18.274 27.5899 17.3963 32.2155 15.1867 36.0503C15.0489 36.2896 14.7431 36.3718 14.5039 36.2339C14.2646 36.0961 14.1824 35.7903 14.3203 35.5511C16.4133 31.9185 17.2432 27.5408 16.3336 23.1124L16.3333 23.1107C15.8511 20.7202 16.9261 18.3784 18.8579 17.1339C19.0901 16.9843 19.3995 17.0513 19.549 17.2834ZM14.1388 36.8058C14.3646 36.9648 14.4187 37.2767 14.2597 37.5025C13.5153 38.5597 12.6625 39.5414 11.7133 40.4294C11.5116 40.6181 11.1952 40.6075 11.0066 40.4059C10.8179 40.2042 10.8285 39.8878 11.0301 39.6992C11.929 38.8582 12.7369 37.9283 13.4421 36.9268C13.6011 36.701 13.913 36.6468 14.1388 36.8058Z"/>
</mask>
<path d="M25.5076 38.8943L26.4159 39.3126L25.5076 38.8943ZM25.2626 38.2309L24.8443 39.1392H24.8443L25.2626 38.2309ZM23.0563 43.2164L22.2311 42.6517H22.2311L23.0563 43.2164ZM22.3613 43.3467L22.9261 42.5214L22.3613 43.3467ZM22.2311 42.6517L23.0563 43.2164L22.2311 42.6517ZM24.5993 38.4759L25.5076 38.8943L24.5993 38.4759ZM27.609 20.8386L26.6283 21.0342L26.6287 21.0362L27.609 20.8386ZM20.8366 16.3323L20.6389 15.3521V15.3521L20.8366 16.3323ZM26.1955 37.2749L25.2638 36.9116V36.9116L26.1955 37.2749ZM25.2638 36.9116L26.1955 37.2749L26.1955 37.2749L25.2638 36.9116ZM26.6286 21.0357L25.6481 21.2324L25.6483 21.2334L26.6286 21.0357ZM26.6284 21.0347L25.6477 21.2302L25.6479 21.2314L26.6284 21.0347ZM21.0343 17.3126L20.8366 16.3323V16.3323L21.0343 17.3126ZM20.4454 16.9213L19.4651 17.119V17.119L20.4454 16.9213ZM19.3995 17.9745L18.8579 17.1339V17.1339L19.3995 17.9745ZM19.549 17.2834L20.3897 16.7418V16.7418L19.549 17.2834ZM17.3134 22.9121L16.333 23.1096L16.3338 23.1133L17.3134 22.9121ZM15.1867 36.0503L16.0532 36.5496L16.0532 36.5496L15.1867 36.0503ZM14.5039 36.2339L14.0046 37.1004L14.0046 37.1004L14.5039 36.2339ZM14.3203 35.5511L13.4538 35.0518H13.4538L14.3203 35.5511ZM16.3336 23.1124L15.3537 23.3119L15.3541 23.3136L16.3336 23.1124ZM16.3333 23.1107L15.353 23.3084L15.3534 23.3102L16.3333 23.1107ZM18.8579 17.1339L19.3995 17.9745V17.9745L18.8579 17.1339ZM14.2597 37.5025L15.0774 38.0783L14.2597 37.5025ZM14.1388 36.8058L14.7145 35.9882H14.7145L14.1388 36.8058ZM11.7133 40.4294L12.3965 41.1597H12.3965L11.7133 40.4294ZM11.0066 40.4059L10.2763 41.0891H10.2763L11.0066 40.4059ZM11.0301 39.6992L10.3469 38.9689H10.3469L11.0301 39.6992ZM13.4421 36.9268L14.2597 37.5025H14.2597L13.4421 36.9268ZM26.4159 39.3126C26.7624 38.5601 26.4334 37.6692 25.6809 37.3226L24.8443 39.1392C24.5934 39.0237 24.4837 38.7268 24.5993 38.4759L26.4159 39.3126ZM23.8816 43.7812C24.8491 42.3674 25.6975 40.8724 26.4159 39.3126L24.5993 38.4759C23.9281 39.9333 23.1352 41.3304 22.2311 42.6517L23.8816 43.7812ZM21.7966 44.172C22.4803 44.6398 23.4138 44.4649 23.8816 43.7812L22.2311 42.6517C22.387 42.4238 22.6982 42.3655 22.9261 42.5214L21.7966 44.172ZM21.4058 42.087C20.9379 42.7707 21.1129 43.7041 21.7966 44.172L22.9261 42.5214C23.154 42.6774 23.2123 42.9886 23.0563 43.2164L21.4058 42.087ZM23.691 38.0576C23.0433 39.4638 22.2783 40.8119 21.4058 42.087L23.0563 43.2164C23.9922 41.8489 24.8128 40.4028 25.5076 38.8943L23.691 38.0576ZM25.6809 37.3226C24.9284 36.9761 24.0375 37.3052 23.691 38.0576L25.5076 38.8943C25.392 39.1451 25.0951 39.2548 24.8443 39.1392L25.6809 37.3226ZM28.5896 20.643C27.8592 16.9812 24.2952 14.6146 20.6389 15.3521L21.0343 17.3126C23.6083 16.7935 26.1147 18.4593 26.6283 21.0342L28.5896 20.643ZM27.1272 37.6381C29.1667 32.4074 29.7805 26.5496 28.5892 20.641L26.6287 21.0362C27.742 26.5581 27.1684 32.0269 25.2638 36.9116L27.1272 37.6381ZM25.1847 38.4907C25.9565 38.7917 26.8262 38.41 27.1272 37.6381L25.2638 36.9116C25.3641 36.6543 25.654 36.5271 25.9113 36.6274L25.1847 38.4907ZM24.3321 36.5483C24.0312 37.3201 24.4129 38.1898 25.1847 38.4907L25.9113 36.6274C26.1686 36.7277 26.2958 37.0176 26.1955 37.2749L24.3321 36.5483ZM25.6483 21.2334C26.7228 26.5621 26.1693 31.8366 24.3321 36.5483L26.1955 37.2749C28.1676 32.217 28.7613 26.5535 27.6089 20.8381L25.6483 21.2334ZM25.6479 21.2314L25.6481 21.2324L27.6091 20.839L27.6088 20.838L25.6479 21.2314ZM21.232 18.2929C23.2649 17.8829 25.2426 19.1985 25.6477 21.2302L27.6091 20.8391C26.9873 17.7205 23.952 15.704 20.8366 16.3323L21.232 18.2929ZM19.4651 17.119C19.6289 17.9311 20.42 18.4566 21.232 18.2929L20.8366 16.3323C21.1073 16.2777 21.371 16.4529 21.4256 16.7236L19.4651 17.119ZM20.6389 15.3521C19.8268 15.5159 19.3013 16.3069 19.4651 17.119L21.4256 16.7236C21.4802 16.9943 21.305 17.258 21.0343 17.3126L20.6389 15.3521ZM19.9411 18.8152C20.6375 18.3665 20.8383 17.4382 20.3897 16.7418L18.7084 17.825C18.5588 17.5928 18.6258 17.2834 18.8579 17.1339L19.9411 18.8152ZM18.2937 22.7146C17.98 21.1578 18.6782 19.6287 19.9411 18.8152L18.8579 17.1339C16.9262 18.3784 15.8515 20.7197 16.3331 23.1096L18.2937 22.7146ZM16.0532 36.5496C18.3794 32.5122 19.3048 27.6385 18.2929 22.7109L16.3338 23.1133C17.2431 27.5413 16.4132 31.9187 14.3203 35.5511L16.0532 36.5496ZM14.0046 37.1004C14.7224 37.514 15.6396 37.2674 16.0532 36.5496L14.3203 35.5511C14.4581 35.3118 14.7638 35.2296 15.0031 35.3675L14.0046 37.1004ZM13.4538 35.0518C13.0402 35.7696 13.2868 36.6868 14.0046 37.1004L15.0031 35.3675C15.2424 35.5053 15.3246 35.811 15.1867 36.0503L13.4538 35.0518ZM15.3541 23.3136C16.2124 27.4922 15.4301 31.6218 13.4538 35.0518L15.1867 36.0503C17.3964 32.2152 18.2741 27.5893 17.3132 22.9112L15.3541 23.3136ZM15.3534 23.3102L15.3537 23.3119L17.3135 22.9129L17.3132 22.9112L15.3534 23.3102ZM18.3163 16.2932C16.0504 17.753 14.7868 20.5009 15.353 23.3084L17.3135 22.913C16.9155 20.9395 17.8018 19.0038 19.3995 17.9745L18.3163 16.2932ZM20.3897 16.7418C19.941 16.0454 19.0128 15.8446 18.3163 16.2932L19.3995 17.9745C19.1674 18.1241 18.8579 18.0571 18.7084 17.825L20.3897 16.7418ZM15.0774 38.0783C15.5543 37.4009 15.3919 36.4652 14.7145 35.9882L13.5631 37.6235C13.3373 37.4645 13.2831 37.1525 13.4421 36.9268L15.0774 38.0783ZM12.3965 41.1597C13.3959 40.2246 14.2938 39.1911 15.0774 38.0783L13.4421 36.9268C12.7369 37.9283 11.929 38.8582 11.0301 39.6992L12.3965 41.1597ZM10.2763 41.0891C10.8423 41.694 11.7915 41.7256 12.3965 41.1597L11.0301 39.6992C11.2318 39.5105 11.5482 39.521 11.7368 39.7227L10.2763 41.0891ZM10.3469 38.9689C9.74197 39.5349 9.71037 40.4841 10.2763 41.0891L11.7368 39.7227C11.9255 39.9244 11.915 40.2408 11.7133 40.4294L10.3469 38.9689ZM12.6245 36.351C11.9585 37.2969 11.1956 38.175 10.3469 38.9689L11.7133 40.4294C12.6625 39.5414 13.5153 38.5597 14.2597 37.5025L12.6245 36.351ZM14.7145 35.9882C14.0372 35.5112 13.1014 35.6737 12.6245 36.351L14.2597 37.5025C14.1008 37.7283 13.7888 37.7824 13.5631 37.6235L14.7145 35.9882Z" fill="#FB7B7B" mask="url(#path-10-inside-4_1_681)"/>
<mask id="path-12-inside-5_1_681" fill="white">
<path fill-rule="evenodd" clip-rule="evenodd" d="M25.9872 42.5543C29.7653 36.1137 31.2804 28.3139 29.6883 20.4187L29.6921 20.4171C28.8325 16.1543 24.6805 13.3954 20.4178 14.255C16.1549 15.1146 13.3961 19.2667 14.2559 23.5297L14.2703 23.5272C15.4328 29.2932 13.2841 34.9579 9.13342 38.5527"/>
</mask>
<path d="M25.1246 42.0483C24.8452 42.5247 25.0048 43.1374 25.4812 43.4168C25.9576 43.6963 26.5703 43.5366 26.8497 43.0602L25.1246 42.0483ZM29.6883 20.4187L29.3037 19.4956L28.5458 19.8115L28.7081 20.6164L29.6883 20.4187ZM29.6921 20.4171L30.0768 21.3402L30.8347 21.0244L30.6724 20.2195L29.6921 20.4171ZM20.4178 14.255L20.6155 15.2353L20.6155 15.2353L20.4178 14.255ZM14.2559 23.5297L13.2756 23.7274L13.4681 24.6817L14.4272 24.5149L14.2559 23.5297ZM14.2703 23.5272L15.2505 23.3295L15.0581 22.3752L14.099 22.542L14.2703 23.5272ZM8.47875 37.7968C8.06127 38.1583 8.01595 38.7899 8.37751 39.2073C8.73908 39.6248 9.37062 39.6701 9.7881 39.3086L8.47875 37.7968ZM26.8497 43.0602C30.7473 36.416 32.3112 28.3667 30.6686 20.221L28.7081 20.6164C30.2497 28.2612 28.7833 35.8114 25.1246 42.0483L26.8497 43.0602ZM30.073 21.3418L30.0768 21.3402L29.3075 19.4941L29.3037 19.4956L30.073 21.3418ZM30.6724 20.2195C29.7036 15.4153 25.0243 12.306 20.2201 13.2748L20.6155 15.2353C24.3367 14.4849 27.9614 16.8933 28.7118 20.6148L30.6724 20.2195ZM20.2201 13.2748C15.4159 14.2435 12.3066 18.9229 13.2756 23.7274L15.2361 23.332C14.4856 19.6104 16.894 15.9857 20.6155 15.2353L20.2201 13.2748ZM14.4272 24.5149L14.4416 24.5124L14.099 22.542L14.0845 22.5445L14.4272 24.5149ZM13.29 23.7248C14.3784 29.1233 12.3681 34.4282 8.47875 37.7968L9.7881 39.3086C14.2 35.4876 16.4872 29.4632 15.2505 23.3295L13.29 23.7248Z" fill="#FB7B7B" mask="url(#path-12-inside-5_1_681)"/>
<mask id="path-14-inside-6_1_681" fill="white">
<path fill-rule="evenodd" clip-rule="evenodd" d="M29.4972 41.5488C32.6582 35.0603 33.7947 27.5216 32.2581 19.9006C31.1141 14.2184 25.5809 10.542 19.9002 11.6875C14.2193 12.8331 10.5427 18.3664 11.6881 24.0475C12.6949 28.977 10.7815 33.8188 7.14258 36.7994"/>
</mask>
<path d="M28.5982 41.1109C28.3564 41.6074 28.5628 42.2059 29.0593 42.4478C29.5558 42.6897 30.1544 42.4833 30.3962 41.9868L28.5982 41.1109ZM32.2581 19.9006L31.2778 20.098L31.2778 20.0983L32.2581 19.9006ZM19.9002 11.6875L19.7026 10.7072L19.7026 10.7072L19.9002 11.6875ZM11.6881 24.0475L10.7079 24.2452L10.7084 24.2476L11.6881 24.0475ZM6.50892 36.0258C6.08167 36.3757 6.019 37.0058 6.36896 37.433C6.71892 37.8603 7.34897 37.923 7.77623 37.573L6.50892 36.0258ZM30.3962 41.9868C33.6498 35.3081 34.8199 27.5466 33.2384 19.703L31.2778 20.0983C32.7695 27.4966 31.6666 34.8125 28.5982 41.1109L30.3962 41.9868ZM33.2384 19.7033C31.9854 13.4795 25.9247 9.45257 19.7026 10.7072L20.0979 12.6677C25.2371 11.6315 30.2428 14.9574 31.2778 20.098L33.2384 19.7033ZM19.7026 10.7072C13.4802 11.9619 9.45326 18.0226 10.7079 24.2452L12.6684 23.8499C11.6321 18.7102 14.9583 13.7042 20.0979 12.6677L19.7026 10.7072ZM10.7084 24.2476C11.6377 28.7979 9.87327 33.2701 6.50892 36.0258L7.77623 37.573C11.6898 34.3675 13.7521 29.1562 12.6679 23.8474L10.7084 24.2476Z" fill="#FB7B7B" mask="url(#path-14-inside-6_1_681)"/>
<mask id="path-16-inside-7_1_681" fill="white">
<path fill-rule="evenodd" clip-rule="evenodd" d="M9.23645 25.0985C9.5112 25.0708 9.75641 25.271 9.78415 25.5458C10.1667 29.3344 8.55142 32.9459 5.71831 35.2219C5.50303 35.3948 5.18832 35.3605 5.01537 35.1452C4.84243 34.9299 4.87675 34.6152 5.09203 34.4423C7.66988 32.3713 9.1366 29.0871 8.78921 25.6462C8.76147 25.3715 8.96171 25.1263 9.23645 25.0985ZM30.1481 12.3682C27.3041 9.95115 23.4223 8.8155 19.4812 9.61022L19.3825 9.12045L19.4812 9.61022C13.0532 10.9064 8.75984 16.8769 9.42766 23.2688C9.45635 23.5435 9.25697 23.7894 8.98232 23.8181C8.70767 23.8468 8.46177 23.6474 8.43307 23.3727C7.71219 16.4729 12.3454 10.029 19.2836 8.62995C23.5377 7.77212 27.7283 8.99929 30.7957 11.6062C31.0061 11.785 31.0317 12.1006 30.8529 12.311C30.674 12.5214 30.3585 12.547 30.1481 12.3682ZM31.6332 13.0896C31.8433 12.9104 32.1589 12.9354 32.3381 13.1454C33.7912 14.8484 34.8436 16.9343 35.3172 19.283L34.8271 19.3819L35.3172 19.283C35.984 22.588 36.1901 25.8795 35.9797 29.0909C35.9617 29.3664 35.7236 29.5752 35.4481 29.5571C35.1725 29.5391 34.9638 29.3011 34.9818 29.0255C35.1865 25.9014 34.9861 22.6984 34.337 19.4808L34.337 19.4807C33.8978 17.3029 32.9229 15.3715 31.5774 13.7945C31.3982 13.5844 31.4232 13.2688 31.6332 13.0896ZM35.3828 30.2873C35.6572 30.3184 35.8544 30.5661 35.8232 30.8405C35.4678 33.9728 34.7162 37.015 33.6111 39.9039C33.5125 40.1618 33.2234 40.2909 32.9655 40.1922C32.7076 40.0936 32.5785 39.8045 32.6771 39.5466C33.7525 36.7352 34.4838 33.7751 34.8296 30.7277C34.8607 30.4533 35.1084 30.2561 35.3828 30.2873Z"/>
</mask>
<path d="M9.78415 25.5458L10.7791 25.4453V25.4453L9.78415 25.5458ZM9.23645 25.0985L9.136 24.1036H9.136L9.23645 25.0985ZM5.71831 35.2219L6.3446 36.0015L6.3446 36.0015L5.71831 35.2219ZM5.01537 35.1452L5.79497 34.5189H5.79496L5.01537 35.1452ZM5.09203 34.4423L4.46574 33.6627H4.46574L5.09203 34.4423ZM8.78921 25.6462L9.78415 25.5458L8.78921 25.6462ZM19.4812 9.61022L18.501 9.80789L18.6986 10.7882L19.6789 10.5905L19.4812 9.61022ZM30.1481 12.3682L29.5005 13.1302L30.1481 12.3682ZM19.4812 9.61022L19.6789 10.5905L20.6592 10.3928L20.4615 9.41256L19.4812 9.61022ZM9.42766 23.2688L10.4222 23.1649L9.42766 23.2688ZM8.98232 23.8181L9.08623 24.8127L9.08624 24.8127L8.98232 23.8181ZM8.43307 23.3727L9.42766 23.2688L8.43307 23.3727ZM19.2836 8.62995L19.4812 9.61022L19.4812 9.61022L19.2836 8.62995ZM30.7957 11.6062L30.1481 12.3682L30.7957 11.6062ZM30.8529 12.311L31.6148 12.9586V12.9586L30.8529 12.311ZM32.3381 13.1454L33.0989 12.4964L32.3381 13.1454ZM31.6332 13.0896L30.9842 12.3289L31.6332 13.0896ZM35.9797 29.0909L36.9776 29.1562L35.9797 29.0909ZM35.4481 29.5571L35.5135 28.5593H35.5135L35.4481 29.5571ZM34.9818 29.0255L35.9797 29.0909L34.9818 29.0255ZM34.337 19.4808L33.3566 19.6781L33.3567 19.6785L34.337 19.4808ZM34.337 19.4807L35.3173 19.2834L35.3172 19.283L34.337 19.4807ZM31.5774 13.7945L30.8167 14.4436L31.5774 13.7945ZM35.8232 30.8405L36.8168 30.9532L35.8232 30.8405ZM35.3828 30.2873L35.27 31.2809L35.3828 30.2873ZM33.6111 39.9039L34.5451 40.2611V40.2611L33.6111 39.9039ZM32.6771 39.5466L33.6111 39.9039L32.6771 39.5466ZM34.8296 30.7277L33.836 30.6149L34.8296 30.7277ZM10.7791 25.4453C10.6959 24.6211 9.96024 24.0204 9.136 24.1036L9.33691 26.0935C9.06216 26.1212 8.81695 25.921 8.78921 25.6462L10.7791 25.4453ZM6.3446 36.0015C9.43291 33.5205 11.1967 29.5818 10.7791 25.4453L8.78921 25.6462C9.1366 29.087 7.66992 32.3713 5.09202 34.4423L6.3446 36.0015ZM4.23578 35.7715C4.75462 36.4173 5.69877 36.5203 6.3446 36.0015L5.09203 34.4423C5.3073 34.2693 5.62202 34.3037 5.79497 34.5189L4.23578 35.7715ZM4.46574 33.6627C3.8199 34.1815 3.71695 35.1257 4.23578 35.7715L5.79496 34.5189C5.96791 34.7342 5.93359 35.0489 5.71831 35.2219L4.46574 33.6627ZM7.79427 25.7467C8.10655 28.8398 6.78831 31.7968 4.46574 33.6627L5.71831 35.2219C8.55146 32.9459 10.1667 29.3343 9.78415 25.5458L7.79427 25.7467ZM9.136 24.1036C8.31177 24.1868 7.71105 24.9224 7.79427 25.7467L9.78415 25.5458C9.81189 25.8205 9.61165 26.0657 9.33691 26.0935L9.136 24.1036ZM19.6789 10.5905C23.3071 9.85888 26.8799 10.903 29.5005 13.1302L30.7957 11.6062C27.7282 8.99927 23.5376 7.77213 19.2836 8.62995L19.6789 10.5905ZM18.4022 9.31812L18.501 9.80789L20.4615 9.41255L20.3627 8.92279L18.4022 9.31812ZM20.4615 9.41256L20.3627 8.92279L18.4022 9.31812L18.501 9.80788L20.4615 9.41256ZM10.4222 23.1649C9.8075 17.2809 13.7611 11.7838 19.6789 10.5905L19.2836 8.62995C12.3454 10.029 7.71219 16.4728 8.43307 23.3727L10.4222 23.1649ZM9.08624 24.8127C9.91018 24.7266 10.5083 23.9888 10.4222 23.1649L8.43307 23.3727C8.40438 23.0981 8.60376 22.8522 8.87841 22.8235L9.08624 24.8127ZM7.43849 23.4766C7.52457 24.3006 8.26229 24.8987 9.08623 24.8127L8.87841 22.8235C9.15306 22.7948 9.39896 22.9942 9.42766 23.2688L7.43849 23.4766ZM19.0859 7.64968C11.6374 9.15161 6.66454 16.0689 7.43849 23.4766L9.42766 23.2688C8.75984 16.8768 13.0533 10.9064 19.4812 9.61022L19.0859 7.64968ZM31.4433 10.8442C28.1525 8.04747 23.653 6.72873 19.0859 7.64968L19.4812 9.61022C23.4223 8.81551 27.304 9.95112 30.1481 12.3682L31.4433 10.8442ZM31.6148 12.9586C32.1513 12.3273 32.0745 11.3807 31.4433 10.8442L30.1481 12.3682C29.9376 12.1894 29.912 11.8738 30.0909 11.6634L31.6148 12.9586ZM29.5005 13.1302C30.1317 13.6667 31.0784 13.5898 31.6148 12.9586L30.0909 11.6634C30.2697 11.453 30.5852 11.4274 30.7957 11.6062L29.5005 13.1302ZM33.0989 12.4964C32.5612 11.8662 31.6144 11.7912 30.9842 12.3289L32.2823 13.8503C32.0722 14.0296 31.7566 14.0046 31.5774 13.7945L33.0989 12.4964ZM36.2975 19.0854C35.7894 16.5657 34.6594 14.3254 33.0989 12.4964L31.5774 13.7945C32.9229 15.3715 33.8978 17.3029 34.337 19.4807L36.2975 19.0854ZM35.0248 20.3621L35.5149 20.2633L35.1196 18.3028L34.6294 18.4016L35.0248 20.3621ZM35.1196 18.3028L34.6294 18.4016L35.0248 20.3621L35.5149 20.2633L35.1196 18.3028ZM36.9776 29.1562C37.1936 25.8576 36.9819 22.4776 36.2975 19.0853L34.337 19.4808C34.9861 22.6984 35.1865 25.9014 34.9818 29.0255L36.9776 29.1562ZM35.3827 30.555C36.2094 30.6091 36.9234 29.9829 36.9776 29.1562L34.9818 29.0255C34.9999 28.75 35.2379 28.5412 35.5135 28.5593L35.3827 30.555ZM33.984 28.9601C33.9298 29.7868 34.5561 30.5008 35.3827 30.555L35.5135 28.5593C35.789 28.5773 35.9978 28.8153 35.9797 29.0909L33.984 28.9601ZM33.3567 19.6785C33.9882 22.8088 34.1829 25.9233 33.984 28.9601L35.9797 29.0909C36.1901 25.8795 35.984 22.588 35.3172 19.283L33.3567 19.6785ZM33.3566 19.6781L33.3566 19.6781L35.3173 19.2834L35.3173 19.2834L33.3566 19.6781ZM30.8167 14.4436C32.0546 15.8945 32.952 17.6715 33.3567 19.6784L35.3172 19.283C34.8436 16.9343 33.7912 14.8484 32.3381 13.1454L30.8167 14.4436ZM30.9842 12.3289C30.354 12.8666 30.279 13.8134 30.8167 14.4436L32.3381 13.1454C32.5174 13.3555 32.4924 13.6711 32.2823 13.8503L30.9842 12.3289ZM36.8168 30.9532C36.9102 30.1301 36.3187 29.3871 35.4955 29.2936L35.27 31.2809C34.9956 31.2498 34.7985 31.0021 34.8296 30.7277L36.8168 30.9532ZM34.5451 40.2611C35.6798 37.2948 36.4517 34.1705 36.8168 30.9532L34.8296 30.7277C34.4838 33.7751 33.7525 36.7352 32.6771 39.5466L34.5451 40.2611ZM32.6082 41.1262C33.382 41.4222 34.2492 41.0349 34.5451 40.2611L32.6771 39.5466C32.7758 39.2887 33.0648 39.1596 33.3228 39.2582L32.6082 41.1262ZM31.7431 39.1893C31.4472 39.9631 31.8345 40.8303 32.6082 41.1262L33.3228 39.2582C33.5807 39.3569 33.7098 39.646 33.6111 39.9039L31.7431 39.1893ZM33.836 30.6149C33.4998 33.5774 32.7889 36.4555 31.7431 39.1893L33.6111 39.9039C34.7162 37.015 35.4678 33.9728 35.8232 30.8405L33.836 30.6149ZM35.4955 29.2936C34.6724 29.2002 33.9294 29.7918 33.836 30.6149L35.8232 30.8405C35.7921 31.1148 35.5444 31.312 35.27 31.2809L35.4955 29.2936Z" fill="#FB7B7B" mask="url(#path-16-inside-7_1_681)"/>
<mask id="path-18-inside-8_1_681" fill="white">
<path fill-rule="evenodd" clip-rule="evenodd" d="M38.0311 23.2217C38.3065 23.2009 38.5466 23.4073 38.5674 23.6827C38.9092 28.2106 38.4664 32.6586 37.3425 36.8741C37.2714 37.1409 36.9974 37.2996 36.7306 37.2284C36.4638 37.1573 36.3051 36.8833 36.3763 36.6165C37.4718 32.5073 37.9034 28.1718 37.5702 23.7579C37.5494 23.4826 37.7558 23.2425 38.0311 23.2217ZM18.7659 6.06249C27.5534 4.29076 36.1128 9.97771 37.8877 18.7656L37.8877 18.7658C38.0571 19.606 38.1987 20.4454 38.3131 21.2831C38.3504 21.5567 38.1589 21.8088 37.8853 21.8461C37.6117 21.8835 37.3596 21.692 37.3223 21.4184C37.2107 20.6016 37.0727 19.7829 36.9074 18.9634C35.2417 10.7166 27.2095 5.38022 18.9636 7.04276C18.6929 7.09734 18.4292 6.92214 18.3746 6.65144C18.32 6.38075 18.4952 6.11706 18.7659 6.06249ZM16.7715 7.11704C16.8706 7.37475 16.7421 7.66408 16.4844 7.76327C9.6809 10.3819 5.55396 17.5973 7.04296 24.9838C7.6768 28.0844 6.50078 31.13 4.24805 33.0388C4.03737 33.2173 3.72186 33.1913 3.54334 32.9806C3.36483 32.7699 3.3909 32.4544 3.60158 32.2759C5.58817 30.5926 6.62089 27.9108 6.06309 25.1834L6.06281 25.1821C4.47548 17.3094 8.8741 9.62093 16.1252 6.83002C16.3829 6.73082 16.6723 6.85933 16.7715 7.11704Z"/>
</mask>
<path d="M38.5674 23.6827L37.5702 23.7579L38.5674 23.6827ZM38.0311 23.2217L38.1064 24.2189L38.0311 23.2217ZM37.3425 36.8741L38.3088 37.1317V37.1317L37.3425 36.8741ZM36.7306 37.2284L36.473 38.1947H36.473L36.7306 37.2284ZM36.3763 36.6165L35.41 36.3589V36.3589L36.3763 36.6165ZM37.5702 23.7579L36.573 23.8332L37.5702 23.7579ZM37.8877 18.7656L36.9074 18.9636L36.9089 18.9705L37.8877 18.7656ZM18.7659 6.06249L18.5683 5.08221L18.7659 6.06249ZM37.8877 18.7658L38.868 18.5681L38.8665 18.5609L37.8877 18.7658ZM38.3131 21.2831L37.3223 21.4184V21.4184L38.3131 21.2831ZM37.3223 21.4184L38.3131 21.2831V21.2831L37.3223 21.4184ZM36.9074 18.9634L37.8877 18.7658L37.8876 18.7654L36.9074 18.9634ZM18.9636 7.04276L18.7659 6.06249L18.7659 6.06249L18.9636 7.04276ZM16.4844 7.76327L16.1252 6.83002V6.83002L16.4844 7.76327ZM7.04296 24.9838L6.06268 25.1814L6.06322 25.1841L7.04296 24.9838ZM4.24805 33.0388L4.89451 33.8018H4.89451L4.24805 33.0388ZM3.54334 32.9806L4.30629 32.3341L4.30629 32.3341L3.54334 32.9806ZM3.60158 32.2759L4.24805 33.0388H4.24805L3.60158 32.2759ZM6.06309 25.1834L5.08311 25.3826L5.08337 25.3838L6.06309 25.1834ZM6.06281 25.1821L5.08254 25.3797L5.08284 25.3812L6.06281 25.1821ZM16.1252 6.83002L16.4844 7.76327L16.4844 7.76327L16.1252 6.83002ZM39.5645 23.6074C39.5022 22.7813 38.7819 22.1622 37.9559 22.2246L38.1064 24.2189C37.8311 24.2397 37.591 24.0333 37.5702 23.7579L39.5645 23.6074ZM38.3088 37.1317C39.461 32.81 39.915 28.2495 39.5645 23.6074L37.5702 23.7579C37.9034 28.1718 37.4718 32.5073 36.3763 36.6165L38.3088 37.1317ZM36.473 38.1947C37.2734 38.4081 38.0954 37.9322 38.3088 37.1317L36.3763 36.6165C36.4474 36.3497 36.7214 36.191 36.9882 36.2622L36.473 38.1947ZM35.41 36.3589C35.1966 37.1593 35.6725 37.9813 36.473 38.1947L36.9882 36.2622C37.255 36.3333 37.4137 36.6073 37.3425 36.8741L35.41 36.3589ZM36.573 23.8332C36.8977 28.1329 36.4772 32.3559 35.41 36.3589L37.3425 36.8741C38.4664 32.6586 38.9092 28.2106 38.5674 23.6827L36.573 23.8332ZM37.9559 22.2246C37.1298 22.2869 36.5107 23.0071 36.573 23.8332L38.5674 23.6827C38.5882 23.958 38.3818 24.1981 38.1064 24.2189L37.9559 22.2246ZM38.8679 18.5676C36.9837 9.23874 27.8973 3.20131 18.5683 5.08221L18.9636 7.04276C27.2096 5.38021 35.2418 10.7167 36.9075 18.9636L38.8679 18.5676ZM38.8665 18.5609L38.8665 18.5607L36.9089 18.9705L36.9089 18.9706L38.8665 18.5609ZM39.3039 21.1478C39.1866 20.2892 39.0416 19.429 38.868 18.5681L36.9074 18.9634C37.0727 19.7829 37.2107 20.6016 37.3223 21.4184L39.3039 21.1478ZM38.0206 22.837C38.8414 22.7249 39.416 21.9686 39.3039 21.1478L37.3223 21.4184C37.2849 21.1448 37.4764 20.8927 37.75 20.8553L38.0206 22.837ZM36.3315 21.5537C36.4436 22.3745 37.1998 22.949 38.0206 22.837L37.75 20.8553C38.0236 20.818 38.2757 21.0095 38.3131 21.2831L36.3315 21.5537ZM35.9272 19.1611C36.0882 19.9599 36.2228 20.7578 36.3315 21.5537L38.3131 21.2831C38.1987 20.4454 38.0571 19.606 37.8877 18.7658L35.9272 19.1611ZM19.1612 8.02304C26.8657 6.46966 34.3708 11.4556 35.9272 19.1614L37.8876 18.7654C36.1126 9.97764 27.5534 4.29077 18.7659 6.06249L19.1612 8.02304ZM17.3943 6.84909C17.5581 7.66117 18.3491 8.18677 19.1612 8.02303L18.7659 6.06249C19.0366 6.00791 19.3003 6.18311 19.3549 6.4538L17.3943 6.84909ZM18.5683 5.08221C17.7562 5.24594 17.2306 6.037 17.3943 6.84909L19.3549 6.4538C19.4095 6.7245 19.2343 6.98818 18.9636 7.04276L18.5683 5.08221ZM16.8436 8.69653C17.6168 8.39896 18.0023 7.53097 17.7047 6.75784L15.8382 7.47625C15.739 7.21854 15.8675 6.92921 16.1252 6.83002L16.8436 8.69653ZM8.02324 24.7862C6.63219 17.8856 10.4876 11.143 16.8436 8.69653L16.1252 6.83002C8.87425 9.62088 4.47573 17.309 6.06268 25.1814L8.02324 24.7862ZM4.89451 33.8018C7.41346 31.6674 8.7329 28.2577 8.0227 24.7835L6.06322 25.1841C6.6207 27.9111 5.58809 30.5926 3.60158 32.2759L4.89451 33.8018ZM2.7804 33.627C3.31595 34.2591 4.26247 34.3373 4.89451 33.8018L3.60158 32.2759C3.81226 32.0974 4.12777 32.1234 4.30629 32.3341L2.7804 33.627ZM2.95512 31.5129C2.32307 32.0485 2.24485 32.995 2.7804 33.627L4.30629 32.3341C4.4848 32.5448 4.45873 32.8603 4.24805 33.0388L2.95512 31.5129ZM5.08337 25.3838C5.56482 27.7379 4.67527 30.0554 2.95512 31.5129L4.24805 33.0388C6.50106 31.1298 7.67697 28.0838 7.04281 24.9831L5.08337 25.3838ZM5.08284 25.3812L5.08311 25.3826L7.04306 24.9843L7.04279 24.9829L5.08284 25.3812ZM15.766 5.89676C8.06755 8.85986 3.39721 17.0211 5.08254 25.3797L7.04309 24.9844C5.55374 17.5978 9.68066 10.382 16.4844 7.76327L15.766 5.89676ZM17.7047 6.75784C17.4071 5.9847 16.5392 5.59918 15.766 5.89676L16.4844 7.76327C16.2267 7.86247 15.9374 7.73396 15.8382 7.47625L17.7047 6.75784Z" fill="#FB7B7B" mask="url(#path-18-inside-8_1_681)"/>
<mask id="path-20-inside-9_1_681" fill="white">
<path fill-rule="evenodd" clip-rule="evenodd" d="M40.7814 25.2655C41.0575 25.2595 41.2862 25.4784 41.2922 25.7545C41.3374 27.8254 41.23 29.8757 40.9789 31.8923C40.9448 32.1663 40.695 32.3608 40.421 32.3267C40.147 32.2926 39.9525 32.0428 39.9866 31.7687C40.2317 29.7999 40.3366 27.7982 40.2925 25.7763C40.2864 25.5002 40.5053 25.2715 40.7814 25.2655ZM18.2484 3.49517C24.9285 2.14824 31.4947 4.5132 35.8118 9.1677C35.9996 9.37017 35.9877 9.68652 35.7852 9.87431C35.5828 10.0621 35.2664 10.0502 35.0786 9.84774C30.9884 5.43784 24.7707 3.2002 18.446 4.47544C12.491 5.67617 7.83042 9.71056 5.58561 14.8938C5.47586 15.1472 5.18148 15.2636 4.92808 15.1539C4.67468 15.0441 4.55823 14.7497 4.66797 14.4963C7.03733 9.02555 11.959 4.76333 18.2484 3.49517L18.3471 3.98493L18.2484 3.49517ZM4.31325 16.95C4.58077 17.0185 4.74211 17.2909 4.67363 17.5584C4.02858 20.0781 3.92659 22.7791 4.47536 25.5014C4.86274 27.3893 4.27029 29.2471 3.05543 30.5578C2.86771 30.7603 2.55135 30.7723 2.34883 30.5846C2.1463 30.3969 2.1343 30.0805 2.32202 29.878C3.32857 28.7921 3.81528 27.2583 3.49561 25.7016L3.49526 25.6999C2.91591 22.8267 3.02323 19.9731 3.70487 17.3104C3.77335 17.0429 4.04574 16.8815 4.31325 16.95Z"/>
</mask>
<path d="M41.2922 25.7545L42.292 25.7326L41.2922 25.7545ZM40.7814 25.2655L40.8032 26.2653L40.7814 25.2655ZM40.9789 31.8923L41.9713 32.0158L40.9789 31.8923ZM40.421 32.3267L40.2975 33.319L40.421 32.3267ZM39.9866 31.7687L38.9943 31.6452L39.9866 31.7687ZM40.2925 25.7763L41.2922 25.7545L40.2925 25.7763ZM35.8118 9.1677L35.0786 9.84774L35.0786 9.84774L35.8118 9.1677ZM18.2484 3.49517L18.0507 2.51489L17.0704 2.71255L17.2681 3.69282L18.2484 3.49517ZM35.7852 9.87431L35.1052 9.14113L35.1052 9.14113L35.7852 9.87431ZM35.0786 9.84774L35.8118 9.1677V9.1677L35.0786 9.84774ZM18.446 4.47544L18.2484 3.49517L18.2484 3.49517L18.446 4.47544ZM5.58561 14.8938L6.50325 15.2912L5.58561 14.8938ZM4.92808 15.1539L5.32551 14.2362L5.3255 14.2362L4.92808 15.1539ZM4.66797 14.4963L5.58561 14.8938H5.58561L4.66797 14.4963ZM18.2484 3.49517L19.2286 3.29751L19.031 2.31724L18.0507 2.51489L18.2484 3.49517ZM4.67363 17.5584L5.64239 17.8064L4.67363 17.5584ZM4.31325 16.95L4.56125 15.9813H4.56125L4.31325 16.95ZM4.47536 25.5014L3.49507 25.699L3.49577 25.7024L4.47536 25.5014ZM3.05543 30.5578L2.32202 29.878H2.32202L3.05543 30.5578ZM2.34883 30.5846L3.02862 29.8512L2.34883 30.5846ZM2.32202 29.878L1.58862 29.1982H1.58862L2.32202 29.878ZM3.49561 25.7016L2.51568 25.901L2.51605 25.9028L3.49561 25.7016ZM3.49526 25.6999L2.51499 25.8975L2.51533 25.8992L3.49526 25.6999ZM3.70487 17.3104L4.67363 17.5584L3.70487 17.3104ZM42.292 25.7326C42.2739 24.9044 41.5878 24.2477 40.7596 24.2657L40.8032 26.2653C40.5272 26.2713 40.2985 26.0524 40.2925 25.7763L42.292 25.7326ZM41.9713 32.0158C42.2283 29.9514 42.3383 27.8526 42.292 25.7326L40.2925 25.7763C40.3366 27.7982 40.2317 29.7999 39.9866 31.7687L41.9713 32.0158ZM40.2975 33.319C41.1195 33.4214 41.8689 32.8379 41.9713 32.0158L39.9866 31.7687C40.0207 31.4947 40.2705 31.3002 40.5445 31.3343L40.2975 33.319ZM38.9943 31.6452C38.8919 32.4673 39.4754 33.2167 40.2975 33.319L40.5445 31.3343C40.8186 31.3685 41.0131 31.6183 40.9789 31.8923L38.9943 31.6452ZM39.2927 25.7981C39.3358 27.771 39.2334 29.7242 38.9943 31.6452L40.9789 31.8923C41.23 29.8757 41.3374 27.8254 41.2922 25.7545L39.2927 25.7981ZM40.7596 24.2657C39.9314 24.2838 39.2746 24.9699 39.2927 25.7981L41.2922 25.7545C41.2982 26.0305 41.0793 26.2592 40.8032 26.2653L40.7596 24.2657ZM36.545 8.48767C32.001 3.5886 25.0864 1.09628 18.0507 2.51489L18.446 4.47544C24.7706 3.20021 30.9883 5.43781 35.0786 9.84774L36.545 8.48767ZM36.4653 10.6075C37.0727 10.0441 37.1083 9.09505 36.545 8.48767L35.0786 9.84774C34.8908 9.64528 34.9027 9.32892 35.1052 9.14113L36.4653 10.6075ZM34.3454 10.5278C34.9088 11.1352 35.8579 11.1709 36.4653 10.6075L35.1052 9.14113C35.3077 8.95335 35.624 8.96524 35.8118 9.1677L34.3454 10.5278ZM18.6437 5.45571C24.6128 4.25214 30.4821 6.36251 34.3454 10.5278L35.8118 9.1677C31.4946 4.51317 24.9285 2.14825 18.2484 3.49517L18.6437 5.45571ZM6.50325 15.2912C8.62349 10.3956 13.0231 6.58902 18.6437 5.45571L18.2484 3.49517C11.959 4.76332 7.03735 9.02552 4.66797 14.4963L6.50325 15.2912ZM4.53066 16.0715C5.29085 16.4007 6.17401 16.0514 6.50325 15.2912L4.66797 14.4963C4.77772 14.2429 5.07211 14.1265 5.32551 14.2362L4.53066 16.0715ZM3.75034 14.0989C3.4211 14.8591 3.77046 15.7423 4.53066 16.0715L5.3255 14.2362C5.5789 14.346 5.69536 14.6404 5.58561 14.8938L3.75034 14.0989ZM18.0507 2.51489C11.4268 3.85049 6.24423 8.34058 3.75034 14.0989L5.58561 14.8938C7.83043 9.71052 12.4911 5.67616 18.446 4.47544L18.0507 2.51489ZM19.3274 3.78727L19.2286 3.29751L17.2681 3.69282L17.3669 4.18258L19.3274 3.78727ZM17.2681 3.69282L17.3669 4.18258L19.3274 3.78727L19.2286 3.29751L17.2681 3.69282ZM5.64239 17.8064C5.84784 17.0039 5.3638 16.1867 4.56125 15.9813L4.06525 17.9188C3.79773 17.8503 3.63639 17.5779 3.70487 17.3104L5.64239 17.8064ZM5.45564 25.3037C4.93724 22.7321 5.03386 20.1835 5.64239 17.8064L3.70487 17.3104C3.0233 19.9728 2.91593 22.8261 3.49508 25.699L5.45564 25.3037ZM3.78883 31.2376C5.21208 29.7021 5.91038 27.5199 5.45495 25.3004L3.49577 25.7024C3.8151 27.2587 3.32851 28.7921 2.32202 29.878L3.78883 31.2376ZM1.66903 31.318C2.27661 31.8812 3.22567 31.8452 3.78883 31.2376L2.32202 29.878C2.50974 29.6755 2.8261 29.6635 3.02862 29.8512L1.66903 31.318ZM1.58862 29.1982C1.02546 29.8058 1.06146 30.7549 1.66903 31.318L3.02862 29.8512C3.23114 30.0389 3.24314 30.3553 3.05543 30.5578L1.58862 29.1982ZM2.51605 25.9028C2.76767 27.128 2.38656 28.3373 1.58862 29.1982L3.05543 30.5578C4.27059 29.2468 4.8629 27.3886 4.47517 25.5005L2.51605 25.9028ZM2.51533 25.8992L2.51569 25.901L4.47554 25.5023L4.47519 25.5005L2.51533 25.8992ZM2.73611 17.0624C2.01795 19.8677 1.90526 22.8736 2.51499 25.8975L4.47553 25.5022C3.92656 22.7797 4.02851 20.0784 4.67363 17.5584L2.73611 17.0624ZM4.56125 15.9813C3.75871 15.7758 2.94156 16.2599 2.73611 17.0624L4.67363 17.5584C4.60515 17.8259 4.33277 17.9873 4.06525 17.9188L4.56125 15.9813Z" fill="#FB7B7B" mask="url(#path-20-inside-9_1_681)"/>
<path d="M40.6418 23.0162C40.5057 21.4661 40.2822 19.9077 39.9674 18.3464C39.4705 15.8887 38.5044 13.6456 37.1812 11.6915" stroke="#FB7B7B" stroke-linecap="round"/>
</svg>
